<?xml version="1.0" encoding="utf-8"?>
<!-- Generator: Adobe Illustrator 23.0.6, SVG Export Plug-In . SVG Version: 6.00 Build 0)  -->
<svg version="1.1" id="Layer_1" xmlns="http://www.w3.org/2000/svg" xmlns:xlink="http://www.w3.org/1999/xlink" x="0px" y="0px"
	 width="488.17151px" height="446.01663px" viewBox="0 0 488.17151 446.01663" enable-background="new 0 0 488.17151 446.01663"
	 xml:space="preserve">
<g>
	<path fill="#E6F0FF" d="M112.69678,0.46897c0,0,0.92618,1.63139,2.6631,4.6902c1.73774,3.05848,4.29647,7.5386,7.47452,13.28314
		c3.21223,5.72587,7.0501,12.71269,11.43243,20.73767c4.41753,8.00615,9.26973,17.10975,14.55185,27.0467
		c5.26476,9.94637,10.86082,20.77962,17.03046,32.10271c3.07567,5.66642,6.17824,11.5183,9.60649,17.36095
		c3.43503,5.83884,7.04846,11.74803,10.58221,17.83345c3.50984,6.09828,6.89682,12.39592,10.19609,18.84071
		c3.28407,6.45305,6.62018,12.97794,10.12276,19.47969c6.91084,13.05424,14.0838,26.23349,20.91722,39.5959
		c6.83965,13.35895,13.63208,26.74332,21.49834,39.28244c3.75246,6.36716,7.20268,12.83044,10.53714,19.25626
		c3.35608,6.4144,6.67105,12.75067,9.93201,18.98325c6.52255,12.46445,12.84976,24.50168,19.00226,35.83401
		c6.14352,11.33713,12.61572,21.69806,17.88562,31.6416c5.24759,9.95581,10.05783,19.08185,14.32144,27.1709
		c4.19012,8.12854,7.84314,15.21512,10.85141,21.05115c5.94669,11.70956,9.25275,18.45047,9.25275,18.45047
		c0.22559,0.45963,0.03568,1.0152-0.42413,1.24063c-0.43716,0.21436-0.96268,0.0502-1.20694-0.36136
		c0,0-3.81451-6.46677-10.3287-17.87027c-3.22232-5.72061-7.13495-12.66711-11.62299-20.63513
		c-4.41455-8.00763-9.39511-17.04202-14.82834-26.89755c-5.41107-9.86761-10.5097-20.96906-16.60471-32.33231
		c-6.08591-11.36832-12.66479-23.26962-19.49323-35.56943c-3.41473-6.14951-6.88626-12.40155-10.40073-18.73041
		c-3.5356-6.31744-7.039-12.75201-10.29599-19.38606c-6.15231-13.46332-13.60106-26.49393-21.00243-39.54997
		c-7.40796-13.05275-14.47603-26.28848-21.58376-39.23669c-3.50687-6.49928-7.12439-12.87256-10.71053-19.16277
		c-3.57079-6.29829-6.97081-12.589-10.13647-18.87292c-3.14171-6.29665-6.09251-12.56307-9.08278-18.64188
		c-2.99687-6.07517-6.18051-11.88313-9.224-17.56705c-6.06889-11.37727-12.04382-22.00622-17.4597-31.87117
		c-5.39886-9.8742-10.33745-18.93106-14.59825-27.02177c-4.29565-8.07172-8.02346-15.11783-11.04167-20.94841
		c-3.05237-5.81225-5.38913-10.41211-6.98914-13.54474c-1.601-3.13214-2.45467-4.80267-2.45467-4.80267
		c-0.23303-0.45566-0.05235-1.01404,0.40331-1.24691C111.91197-0.12509,112.45285,0.04105,112.69678,0.46897z"/>
	<path fill="#E6F0FF" d="M473.8356,172.71571c0,0-1.81967,0.48753-5.23141,1.40182
		c-3.41156,0.91512-8.41241,2.26822-14.79892,3.90424c-6.37689,1.67366-14.13779,3.63667-23.04565,5.86658
		c-8.89801,2.26872-18.97321,4.68294-29.96747,7.30441c-10.99905,2.60266-22.94461,5.30341-35.50983,8.43637
		c-6.2851,1.55658-12.75745,3.0925-19.30167,4.94569c-6.54224,1.86078-13.19727,3.87631-20.00424,5.77097
		c-6.81357,1.86821-13.79099,3.56764-20.89026,5.14552c-7.10327,1.56136-14.28943,3.15492-21.49457,4.91496
		c-14.43607,3.41687-29.05907,7.05553-43.77628,10.32011c-14.7155,3.27153-29.44406,6.4912-43.6149,10.96042
		c-7.13579,2.03535-14.29041,3.75461-21.37962,5.37146c-7.08344,1.6403-14.08099,3.26062-20.96361,4.85452
		c-13.76506,3.18878-27.0652,6.29533-39.6352,9.40962c-12.57232,3.10406-24.27477,6.77029-35.27235,9.37842
		c-11.00401,2.5835-21.09093,4.95163-30.03152,7.05072c-8.96107,2.01804-16.77333,3.7774-23.20688,5.22629
		c-12.8866,2.82083-20.2759,4.33133-20.2759,4.33133l-0.01239,0.00247c-0.50157,0.10257-0.99125-0.22098-1.09381-0.72253
		c-0.09744-0.47699,0.19373-0.94418,0.65351-1.07681c0,0,7.24826-2.07071,19.97731-5.51663
		c6.37427-1.68457,14.11435-3.73016,22.99284-6.07632c8.89881-2.26541,18.93849-4.82117,29.89065-7.60928
		c10.9586-2.76334,23.04222-4.91644,35.62811-7.96716c12.5883-3.04082,25.8186-6.42482,39.49892-9.95052
		c6.83986-1.76334,13.79395-3.55609,20.83333-5.37096c7.03352-1.83832,14.17348-3.6162,21.44647-5.10588
		c14.6468-2.58102,29.19321-6.52341,43.75266-10.41393c14.55779-3.89763,29.20987-7.42085,43.59146-11.0544
		c7.20364-1.765,14.31204-3.66838,21.33154-5.56236c7.02365-1.87714,13.99759-3.59094,20.90665-5.07997
		c6.91583-1.4626,13.75464-2.74832,20.42044-4.11893c6.66394-1.37804,13.11365-3.00348,19.40765-4.52438
		c12.59311-3.02214,24.43347-6.14041,35.39075-8.90936c10.96191-2.74998,21.01315-5.25966,29.95456-7.35545
		c8.93185-2.13445,16.7233-3.97624,23.15421-5.43619c6.42133-1.49745,11.4838-2.60612,14.93353-3.36963
		c3.44955-0.7645,5.28918-1.1721,5.28918-1.1721l0.01239-0.00281c0.4996-0.11064,0.99438,0.20464,1.10526,0.70422
		C474.60803,172.10597,474.31107,172.58755,473.8356,172.71571z"/>
	<path fill="#E6F0FF" d="M486.83881,360.29565c0,0-1.91873-0.93478-5.51596-2.68738
		c-3.59128-1.76483-8.85834-4.3533-15.56177-7.64761c-6.6998-3.30191-14.8024-7.37476-24.08667-12.06677
		c-9.30228-4.65634-19.72922-10.04315-31.09808-15.93073c-11.35992-5.90506-23.61118-12.41095-36.69843-19.03873
		c-6.53909-3.32306-13.22699-6.79459-20.1958-10.08261c-6.98398-3.25848-14.11914-6.58749-21.37518-9.97299
		c-7.21341-3.46887-14.45325-7.17905-21.71521-11.06543c-7.25421-3.90192-14.60272-7.83887-22.08215-11.66614
		c-14.91058-7.74965-30.13641-15.46811-45.18654-23.53024c-15.05359-8.05553-30.08272-16.15895-45.48726-22.94214
		c-7.60863-3.57458-15.01622-7.39624-22.29655-11.24713c-7.29117-3.82925-14.49388-7.61192-21.57848-11.33267
		c-14.16985-7.44049-27.87858-14.61081-40.95725-21.25558c-13.07405-6.65421-25.77832-12.2739-37.14089-18.17384
		c-11.35117-5.92256-21.75634-11.35149-30.97884-16.16357c-9.18485-4.88657-17.19199-9.14653-23.78624-12.65472
		c-13.15217-7.08707-20.62008-11.22995-20.62008-11.22995c-0.44757-0.24839-0.60925-0.81272-0.36086-1.26045
		c0.23766-0.42841,0.7673-0.59339,1.20446-0.38943c0,0,7.731,3.62859,21.17665,10.14158
		c6.70474,3.29185,14.84634,7.28905,24.18509,11.87422c9.30095,4.65947,19.79398,9.91614,31.24127,15.65094
		c11.4354,5.75725,23.42935,12.76637,36.47813,19.46945c13.04432,6.71234,26.88336,13.62798,41.21126,20.75914
		c7.1642,3.56502,14.4478,7.18947,21.82108,10.85852c7.38419,3.64742,14.81923,7.41524,22.17188,11.49072
		c14.51802,8.51697,29.88652,15.95665,45.23061,23.44405c15.34723,7.4808,30.51904,15.30528,45.53119,22.85593
		c7.48178,3.82281,14.97595,7.47519,22.38608,11.07175c7.4025,3.61172,14.64911,7.30869,21.68451,11.12573
		c6.99292,3.90027,13.86908,7.73563,20.59961,11.48972c6.74567,3.72455,13.47568,7.11383,19.99792,10.46942
		c13.0354,6.72952,25.48251,12.85226,36.92059,18.60455c11.42926,5.76965,21.90082,11.0686,31.12201,15.88382
		c9.23935,4.77954,17.28531,8.96387,23.88452,12.46198c6.5954,3.50589,11.77759,6.26031,15.3107,8.13846
		c3.52719,1.89017,5.40829,2.89825,5.40829,2.89825c0.45105,0.24179,0.62082,0.8035,0.37903,1.25452
		C487.82559,360.34024,487.28387,360.51166,486.83881,360.29565z"/>
	<path fill="#E6F0FF" d="M355.48904,20.99689c0,0-0.90405,1.67895-2.59918,4.82661
		c-1.69449,3.14832-4.16949,7.77147-7.39725,13.61146c-3.19391,5.85915-7.13412,12.93863-11.67355,21.04816
		c-4.50455,8.12919-9.71698,17.22667-15.41428,27.14513c-5.71429,9.90888-12.01111,20.58309-18.42337,32.01353
		c-3.21503,5.71018-6.57443,11.54407-9.75381,17.65112c-3.17276,6.11067-6.31134,12.41211-9.6423,18.74129
		c-3.35461,6.31596-6.94452,12.63541-10.70627,18.96013c-3.77689,6.31613-7.58746,12.716-11.29071,19.24518
		c-7.49913,13.00568-14.96687,26.30318-22.77039,39.41026c-7.79706,13.11089-15.64087,26.19519-22.1958,39.73611
		c-3.45618,6.66907-7.15413,13.13269-10.88098,19.47723c-3.70589,6.35641-7.36664,12.63571-10.96751,18.81198
		c-7.2007,12.3533-14.13963,24.30698-20.56873,35.728c-6.43802,11.41589-11.86893,22.58078-17.57812,32.49246
		c-5.73149,9.89914-10.98518,18.97318-15.64201,27.01617c-4.72948,8.00183-8.85257,14.97775-12.24796,20.72263
		c-6.85998,11.45059-10.87106,17.94229-10.87106,17.94229c-0.26904,0.43567-0.84047,0.57059-1.27615,0.30139
		c-0.41454-0.25613-0.55508-0.78894-0.33592-1.21503c0,0,3.50836-6.77643,9.80748-18.54492
		c3.18417-5.86478,7.0504-12.98621,11.48528-21.15485c4.50771-8.12753,9.59311-17.29703,15.14095-27.30023
		c5.56998-9.99045,12.35828-20.38623,18.84436-31.77487c6.495-11.3837,13.1852-23.47839,20.0835-36.00299
		c3.44873-6.26245,6.95494-12.62946,10.50409-19.07458c3.52818-6.45715,7.17361-12.95068,11.11929-19.34229
		c8.24913-12.58072,15.44418-26.03265,22.68616-39.45816c7.23555-13.42896,14.80672-26.66783,22.11159-39.78368
		c3.69878-6.53165,7.2314-13.08908,10.7097-19.57449c3.49338-6.47682,7.0704-12.80353,10.76523-18.92659
		c3.7186-6.10953,7.51218-12.0397,11.12439-17.90134c3.6058-5.86542,6.88477-11.74489,10.13187-17.4369
		c6.51166-11.37413,12.43408-22.26056,17.99908-32.254c5.58185-9.9837,10.70871-19.12991,15.36853-27.17123
		c4.62497-8.06098,8.67404-15.07869,12.05966-20.82917c3.35196-5.76964,6.04645-10.26842,7.87686-13.33962
		c1.82959-3.07153,2.8053-4.70985,2.8053-4.70985c0.26193-0.43964,0.83072-0.58382,1.27039-0.32188
		C355.57492,20.01605,355.72211,20.56271,355.48904,20.99689z"/>
	<path fill="#E6F0FF" d="M215.73228,266.30511c1.14026-0.61588,2.29118-1.18335,3.48573-1.67944
		c0.92058-0.38333,1.86293-0.71414,2.80547-1.04626c0.96185-0.26556,1.91727-0.5668,2.88953-0.80148
		c0.98003-0.19919,1.95657-0.43024,2.94452-0.60068l2.98779-0.38925c1.00314-0.06113,2.01059-0.07812,3.01703-0.11462
		c1.00697-0.04477,2.01207,0.09033,3.01935,0.12915c1.0114,0.02512,2.00826,0.17755,3.00298,0.35474
		c0.98894,0.1954,2.01141,0.25104,2.97375,0.56567l2.92305,0.80182c0.96831,0.28687,1.87631,0.74005,2.81621,1.10388
		c0.92932,0.39108,1.88196,0.73541,2.74271,1.26013l2.64328,1.45319c0.90887,0.44226,1.66971,1.1062,2.50638,1.65631
		l2.43451,1.75641l-2.418,1.32486c-0.04492-0.76764-0.02924-1.41504-0.00464-2.10999
		c0.0408-0.68094,0.08325-1.36105,0.17953-2.03503c0.06473-0.67697,0.20264-1.34552,0.32864-2.01437
		c0.10291-0.67233,0.32965-1.32504,0.4892-1.98712c0.16052-0.66293,0.44559-1.29697,0.66507-1.94452
		c0.20941-0.65271,0.57507-1.25269,0.85797-1.87878c0.2702-0.63486,0.69629-1.19489,1.06061-1.78268
		c0.34885-0.60065,0.79919-1.13196,1.26361-1.65253c0.45068-0.53113,0.89728-1.0631,1.44327-1.50157
		c0.5351-0.44312,1.0134-0.96616,1.60117-1.33626l1.76172-1.11479c0.59436-0.35672,1.25464-0.57077,1.8811-0.85979
		c0.63217-0.28093,1.26654-0.55342,1.93655-0.68719l1.98401-0.50868c0.66159-0.17456,1.33557-0.1924,2.00314-0.30603
		l2.01239-0.26556l-1.16809,1.9754c-0.73267-1.38283-1.32095-2.72339-1.94388-4.10687
		c-0.603-1.37987-1.14966-2.78862-1.63818-4.22826c-0.98349-2.8727-1.73627-5.89484-1.8768-9.06413
		c-0.16037-3.14551,0.23517-6.50127,1.68439-9.56982c0.36996-0.75656,0.74585-1.51907,1.23587-2.21587
		c0.45251-0.71941,1.01501-1.36252,1.56216-2.00677c0.59937-0.59885,1.18747-1.2058,1.85849-1.70885
		c0.62756-0.56119,1.34402-0.97952,2.02466-1.44972l0.48618,3.84528c-0.88293-0.33014-1.5939-0.65384-2.35495-1.01619
		c-0.74219-0.36284-1.48538-0.71693-2.20181-1.11809c-0.73346-0.37126-1.42279-0.81883-2.1293-1.23552
		c-0.70605-0.418-1.366-0.91214-2.04953-1.36581c-0.6785-0.46227-1.30637-1.00067-1.96008-1.49878
		c-0.66113-0.4895-1.2373-1.09132-1.85797-1.63286c-0.62842-0.53494-1.17639-1.16071-1.74057-1.76666
		c-0.57373-0.59752-1.12485-1.21536-1.61026-1.8943c-0.48685-0.674-1.04971-1.29018-1.46835-2.01389l-1.29959-2.1356
		c-0.39224-0.73427-0.71429-1.50818-1.0712-2.26128c-0.38428-0.74385-0.62775-1.54269-0.85815-2.34453
		c-0.22394-0.80165-0.5217-1.58415-0.67725-2.39851l-0.41193-2.45139c-0.16846-0.81337-0.16299-1.63963-0.18661-2.46144
		l-0.06427-2.4588l2.24545,1.36102c-0.94403,0.4299-1.81091,0.78613-2.7224,1.1328c-0.90274,0.3412-1.80989,0.66258-2.72649,0.9493
		l-2.74638,0.86243c-0.91429,0.29001-1.85384,0.49332-2.77921,0.74319c-0.92734,0.2446-1.8768,0.39902-2.80794,0.63503
		c-0.93295,0.22923-1.88307,0.38463-2.82808,0.57687c-0.9399,0.23056-1.89378,0.39059-2.85535,0.52585
		c-0.96053,0.13692-1.91991,0.33362-2.8963,0.38348c-0.97357,0.08224-1.95178,0.17375-2.93312,0.20033
		c-0.98233-0.01535-1.96599-0.06821-2.95129-0.10983c-0.98663-0.02162-1.95657-0.26225-2.93594-0.38927
		c-0.97986-0.14186-1.95439-0.31213-2.90158-0.62047l-2.85286-0.8365l-2.74651-1.14386l-1.36417-0.58464l-1.29463-0.72816
		l-2.58449-1.45154l2.89233-1.33096c-0.12733,0.68736-0.26292,1.27316-0.41685,1.89546
		c-0.15161,0.61288-0.3161,1.21999-0.49364,1.82329c-0.35443,1.20645-0.75624,2.3987-1.2119,3.57492
		c-0.90584,2.35245-2.0484,4.64114-3.50935,6.77806c-0.73509,1.06558-1.57391,2.08011-2.5204,3.01025
		c-0.94287,0.93295-2.01851,1.76483-3.21208,2.43304c-0.59505,0.32965-1.21091,0.64592-1.86342,0.86739
		c-0.64096,0.25798-1.31595,0.40892-1.98714,0.56665c-0.68076,0.09677-1.36218,0.20842-2.04526,0.20297
		c-0.68622,0.04988-1.35538-0.04393-2.03122-0.08224l1.51099-2.28276c0.35954,0.65863,0.66887,1.24692,0.97804,1.87532
		c0.30487,0.62114,0.5972,1.24641,0.87167,1.87994c0.5782,1.25534,1.07779,2.54552,1.56334,3.85121
		c0.95592,2.61423,1.67586,5.36931,1.89828,8.27998c0.12799,1.45137,0.1042,2.946-0.145,4.44246
		c-0.22015,1.4991-0.69331,2.98399-1.34534,4.4015c-0.36382,0.69299-0.74155,1.37854-1.20761,2.01009
		c-0.42841,0.65483-0.965,1.23206-1.48721,1.80266c-0.54797,0.55112-1.11214,1.07895-1.72749,1.53444
		c-0.58597,0.50273-1.25104,0.8588-1.87747,1.28391l-0.19389-3.76154c0.78551,0.39719,1.45006,0.77176,2.14931,1.18134
		c0.68755,0.40662,1.36748,0.82082,2.03371,1.25583c1.33543,0.86458,2.6342,1.78349,3.89185,2.7627
		c2.52635,1.9422,4.82974,4.20679,6.83322,6.74718c1.98944,2.53412,3.67438,5.43471,4.51035,8.64149
		c0.1853,0.80545,0.3815,1.60809,0.45847,2.43304c0.12733,0.81537,0.12617,1.64575,0.14633,2.46475
		c-0.04773,0.82214-0.06607,1.64197-0.23238,2.44476C215.78914,266.10742,215.74963,266.20322,215.73228,266.30511z
		 M213.45499,267.92706c0.08224-0.72501,0.23386-1.435,0.23073-2.1579c0.05434-0.71759,0.01651-1.43253-0.01123-2.14301
		c-0.08902-0.70752-0.14848-1.41422-0.3275-2.10339c-0.12833-0.69565-0.3678-1.36899-0.58664-2.039
		c-0.25334-0.66342-0.52531-1.31628-0.85219-1.94931c-0.31131-0.63715-0.65103-1.26492-1.03749-1.86707
		c-0.74731-1.21767-1.63469-2.36086-2.60216-3.43866c-1.91695-2.17755-4.20845-4.03519-6.57114-5.78235
		c-1.19043-0.86508-2.42395-1.6778-3.68771-2.43767c-0.63019-0.38249-1.27217-0.74451-1.91594-1.09712
		c-0.63419-0.34549-1.31975-0.69743-1.91182-0.97209c-1.06261-0.49315-1.52417-1.75409-1.03122-2.81653
		c0.14949-0.32188,0.36916-0.58861,0.63254-0.79025l0.20462-0.15509c0.45798-0.34798,0.97656-0.63087,1.3858-1.02164
		c0.44955-0.35178,0.84097-0.75227,1.22231-1.15855c0.35524-0.42509,0.72964-0.83749,1.00876-1.31329
		c0.32024-0.44905,0.54881-0.95277,0.81271-1.43585c0.9285-2.00893,1.33412-4.31001,1.37-6.73512
		c0.02902-2.42281-0.35179-4.93478-0.9855-7.40433c-0.30869-1.23898-0.73131-2.45335-1.18283-3.65683
		c-0.23766-0.5972-0.49283-1.18762-0.75806-1.77144c-0.26161-0.57607-0.55112-1.17937-0.83911-1.68588
		c-0.41805-0.73544-0.1609-1.67053,0.57437-2.08853c0.25499-0.14502,0.5341-0.20876,0.8071-0.19951l0.12981,0.00494
		c0.52882,0.01933,1.06227,0.10388,1.5835,0.05615c0.52783,0.0076,1.03833-0.08852,1.55327-0.15541
		c0.50157-0.12732,1.00876-0.23318,1.48853-0.4332c0.49068-0.16333,0.95459-0.40958,1.41124-0.66258
		c1.82742-1.0408,3.30621-2.73148,4.53264-4.58995c1.20695-1.89001,2.15625-3.99011,2.9044-6.17113
		c0.37572-1.09018,0.70421-2.201,0.98827-3.32272c0.14204-0.5607,0.27217-1.12437,0.38927-1.6882
		c0.11627-0.55392,0.22729-1.15047,0.30075-1.65335c0.15096-1.03453,1.11198-1.75064,2.14633-1.59952
		c0.2076,0.03023,0.40215,0.09314,0.5797,0.18266l0.16667,0.08571l2.37289,1.21042l1.18398,0.6028l1.24658,0.46243l2.49069,0.91148
		l2.57523,0.64575c0.8456,0.26244,1.73114,0.35475,2.60233,0.51759c0.87697,0.12766,1.7361,0.37192,2.63023,0.40265
		c0.88522,0.09529,1.77226,0.17902,2.66063,0.30074l2.6925,0.17291c0.90224,0.09332,1.80826,0.05402,2.71764,0.0517
		c0.91045,0.00363,1.82309-0.01486,2.73293-0.10686c0.90553-0.10965,1.82626-0.14384,2.72008-0.34962
		c0.89861-0.17424,1.80431-0.32205,2.6859-0.57639c0.88158-0.2507,1.77655-0.45335,2.64708-0.74187
		c0.86838-0.2925,1.75789-0.52437,2.60136-0.88539c0.85744-0.32336,1.69955-0.67795,2.53242-1.04906
		c0.82147-0.36978,1.67238-0.77011,2.40663-1.1777c0.72583-0.40314,1.64111-0.14154,2.0441,0.58447
		c0.10107,0.18184,0.16037,0.37556,0.181,0.57011l0.02066,0.2066l0.22443,2.20645c0.07349,0.73312,0.11514,1.4697,0.32388,2.17574
		l0.47052,2.1389c0.16965,0.70769,0.47464,1.37508,0.70108,2.06293c0.22641,0.69019,0.48703,1.3645,0.83401,2.00348
		c0.32501,0.64658,0.60959,1.31348,0.96118,1.94519l1.16568,1.83568c0.36877,0.62411,0.88455,1.1526,1.31644,1.73477
		c0.42972,0.58646,0.92651,1.12041,1.44424,1.63716c0.5072,0.5247,0.99393,1.06805,1.56467,1.53313
		c0.56253,0.47052,1.07187,0.99852,1.67435,1.42477c0.59406,0.43387,1.15656,0.90752,1.77325,1.31149
		c0.62228,0.3952,1.21683,0.83154,1.85895,1.19554c0.6423,0.36269,1.26624,0.75839,1.93048,1.07846
		c0.65237,0.3445,1.31116,0.66953,1.9873,0.95244c0.65945,0.27679,1.3876,0.55441,1.97473,0.74054
		c1.11908,0.35458,1.73892,1.54915,1.38434,2.66823c-0.13214,0.41701-0.38101,0.76483-0.6991,1.01849l-0.19885,0.15889
		c-0.49216,0.39372-1.03336,0.73064-1.46722,1.17555c-0.47348,0.40678-0.85565,0.89151-1.25995,1.34981
		c-0.35065,0.50256-0.7229,0.98366-1.00183,1.52916c-0.32669,0.51181-0.55905,1.08556-0.79965,1.64723
		c-0.22891,0.57127-0.41141,1.16385-0.56781,1.76979c-0.15195,0.6086-0.3075,1.21883-0.3891,1.85666
		c-0.1214,0.62543-0.17789,1.27565-0.23917,1.92322c-0.03632,0.6535-0.09033,1.31065-0.08966,1.97853
		c0.0025,1.33246,0.04343,2.69069,0.17935,4.05783c0.10767,1.37192,0.30222,2.7531,0.55542,4.13229
		c0.25482,1.37936,0.57886,2.7556,0.9574,4.12076c0.36301,1.35954,0.85382,2.73148,1.37064,3.98283l0.01498,0.03618
		c0.29663,0.71841-0.04507,1.54121-0.76349,1.83798c-0.13544,0.05583-0.28094,0.08936-0.41949,0.10158l-1.8248,0.15292
		c-0.60345,0.07086-1.23468,0.04707-1.81586,0.21306l-1.75757,0.4398c-0.60165,0.10933-1.1488,0.34764-1.69464,0.58861
		c-0.53955,0.24855-1.12354,0.42197-1.63089,0.7265l-1.5062,0.93924c-0.50717,0.30701-0.90256,0.75723-1.36301,1.12503
		c-0.47565,0.35657-0.84378,0.8223-1.20892,1.28787c-0.38251,0.45035-0.75592,0.90717-1.03683,1.43582
		c-0.29547,0.51495-0.65286,0.99011-0.86774,1.55377c-0.22638,0.55392-0.53476,1.06622-0.69891,1.64905
		c-0.1731,0.57657-0.41257,1.1272-0.53592,1.72092c-0.12256,0.59241-0.31165,1.1658-0.37903,1.77161
		c-0.09134,0.59933-0.19687,1.19522-0.23267,1.80231c-0.06726,0.60349-0.08295,1.20892-0.10028,1.81323
		c-0.00314,0.59091,0.00989,1.23154,0.05734,1.74765c0.07578,0.82544-0.53217,1.55606-1.35757,1.63187
		c-0.3566,0.03271-0.69528-0.06207-0.97128-0.24673l-0.08969-0.06012l-2.33923-1.56696
		c-0.78993-0.50092-1.50455-1.13181-2.35361-1.52783l-2.46492-1.32916c-0.80196-0.48672-1.68489-0.79025-2.54501-1.14435
		c-0.86903-0.32834-1.7103-0.74106-2.60034-1.00363l-2.67067-0.79391c-0.87964-0.31561-1.81705-0.37488-2.72337-0.57755
		c-0.91185-0.18463-1.82747-0.34781-2.75909-0.38712c-0.92783-0.05267-1.8532-0.20496-2.78531-0.18033l-2.79752,0.02527
		l-2.79509,0.23764c-0.92816,0.1181-1.84972,0.2948-2.77754,0.43799c-0.9209,0.17886-1.82909,0.42313-2.74718,0.6304
		c-0.89793,0.2738-1.8152,0.50223-2.7067,0.80627c-1.78383,0.59158-3.55476,1.31711-5.17873,2.18811
		c-0.46094,0.24741-1.03534,0.07401-1.28258-0.38712c-0.0948-0.17654-0.12782-0.36978-0.10669-0.5549L213.45499,267.92706z"/>
	<path fill="#E6F0FF" d="M199.81149,294.29517c0.76549-0.49167,1.50455-1.01172,2.29068-1.47037
		c1.44414-0.83847,2.91809-1.62329,4.42184-2.34848c2.99919-1.46872,6.11446-2.70422,9.30753-3.7095
		c1.59903-0.49579,3.21323-0.94403,4.84413-1.33496c1.63435-0.37424,3.27846-0.71494,4.9399-0.96844
		c0.82611-0.15573,1.66344-0.23599,2.49844-0.33231c0.8342-0.10815,1.67169-0.18332,2.51251-0.22626
		c1.67728-0.14169,3.36316-0.1478,5.04723-0.15689c1.68491,0.04709,3.3698,0.10867,5.04776,0.29416
		c1.68077,0.1384,3.34915,0.4198,5.00996,0.70898c1.65746,0.32306,3.30803,0.67862,4.92897,1.15558
		c1.63998,0.40942,3.20795,1.04889,4.80647,1.5845c1.54785,0.66672,3.14206,1.23337,4.63553,2.01535l2.26837,1.11182
		l2.19641,1.24246c1.48703,0.79156,2.85797,1.76663,4.272,2.67233c1.38828,0.94336,2.70026,1.99026,4.05154,2.98071
		l-2.40842,1.31955c-0.08127-1.19983-0.06525-2.26788-0.02808-3.39224c0.03616-1.1105,0.13855-2.2142,0.25778-3.31546
		c0.26328-2.20001,0.68805-4.38217,1.29581-6.52042c0.3009-1.06921,0.64972-2.12833,1.06061-3.16486
		c0.39737-1.04028,0.8479-2.06555,1.36731-3.056c0.49661-1.00116,1.07483-1.965,1.68903-2.90173
		c0.61057-0.9422,1.30624-1.8248,2.01273-2.69812c0.75626-0.83237,1.50421-1.67087,2.34006-2.42593
		c0.81503-0.77209,1.6958-1.48126,2.60779-2.1333l1.39157-0.95029l1.45715-0.84195c0.98337-0.53329,1.9982-1.01736,3.03073-1.43784
		c1.03998-0.40726,2.08243-0.80725,3.15808-1.09232c1.06012-0.34863,2.14865-0.55774,3.23172-0.79523
		c1.08307-0.23947,2.18036-0.3569,3.27069-0.5473c1.09485-0.12949,2.19324-0.20959,3.2915-0.31546l-1.16928,1.97772
		c-1.1488-2.25748-2.09497-4.49945-3.04459-6.79425c-0.92816-2.29199-1.76315-4.62611-2.49731-7.00235
		c-1.47647-4.74437-2.55276-9.6889-2.74252-14.79495c-0.05054-1.27432-0.05731-2.55789,0.01685-3.84378
		c0.10226-1.28539,0.19806-2.57475,0.43188-3.85881c0.17853-1.28671,0.49991-2.56418,0.83237-3.83305l0.6134-1.88094
		l0.76761-1.83452c0.23517-0.61884,0.59802-1.18828,0.89331-1.7825c0.29382-0.59688,0.64133-1.16533,1.01849-1.71761
		c0.69138-1.14287,1.56732-2.1579,2.41193-3.18433c0.93295-0.95029,1.84326-1.9209,2.89496-2.72618
		c0.98431-0.89101,2.11597-1.56401,3.18698-2.32042l0.48801,3.85881c-1.38266-0.49727-2.56018-1.0218-3.79721-1.59587
		c-1.21701-0.57324-2.41617-1.17027-3.5965-1.80331c-2.3576-1.27019-4.63937-2.67664-6.82617-4.22513
		c-1.09296-0.77423-2.16666-1.5782-3.20447-2.42874c-1.04657-0.83815-2.06079-1.7209-3.04016-2.64064
		c-0.9924-0.90636-1.92783-1.87532-2.85483-2.85039c-0.90701-0.9962-1.79407-2.00975-2.62576-3.07301
		c-0.83157-1.06029-1.64279-2.14236-2.37823-3.27516c-0.76184-1.11644-1.44144-2.28506-2.10669-3.46228
		c-0.61835-1.20082-1.27646-2.38663-1.78381-3.64163c-0.56631-1.22974-1.02115-2.50389-1.45007-3.78581
		c-0.41437-1.28441-0.77966-2.58795-1.08636-3.89944c-0.28458-1.31842-0.5744-2.6342-0.7341-3.97112
		c-0.2309-1.32718-0.2963-2.67036-0.39667-4.00696c-0.0993-1.33691-0.05157-2.67714-0.08212-4.01224l2.28094,1.38249
		c-1.50372,0.72008-2.94223,1.31-4.42911,1.90208c-1.47729,0.58498-2.97028,1.11874-4.47202,1.62263
		c-3.01157,0.98151-6.03357,1.92403-9.11269,2.66293c-1.53592,0.38116-3.08423,0.71246-4.63635,1.02411
		c-1.54814,0.33311-3.11099,0.59737-4.67236,0.87697c-1.56512,0.25946-3.13394,0.51346-4.71265,0.7247
		c-1.58102,0.1815-3.16583,0.37407-4.76138,0.47217c-1.59291,0.13443-3.19588,0.18233-4.79936,0.19588
		c-1.60381-0.03403-3.21008-0.06888-4.81422-0.20711c-1.60959-0.06772-3.20018-0.36153-4.79539-0.58167
		c-1.58565-0.29414-3.17921-0.55855-4.73611-0.99753c-1.57423-0.36186-3.10489-0.89052-4.64775-1.36433
		c-1.50636-0.58481-3.04791-1.07764-4.50919-1.77061l-2.21039-0.98828l-2.15215-1.10834
		c-1.44939-0.71001-2.7944-1.60942-4.1947-2.40398l2.92401-1.3455c-0.19421,1.08372-0.41156,2.0621-0.65517,3.07565
		c-0.24095,1.00414-0.50322,2.00034-0.78679,2.9906c-0.56631,1.98051-1.21091,3.93825-1.9427,5.86807
		c-0.73279,1.92899-1.54633,3.83289-2.48557,5.68573c-0.47412,0.92387-0.9483,1.84891-1.48802,2.74304
		c-0.51363,0.90652-1.09233,1.78119-1.67053,2.65369c-0.60397,0.85947-1.2195,1.71115-1.89662,2.52437
		c-0.67465,0.81174-1.36961,1.61537-2.14221,2.35162c-0.74385,0.76202-1.5744,1.44527-2.40642,2.12173
		c-0.86974,0.63799-1.7533,1.25549-2.70851,1.77573c-0.45653,0.2915-0.96371,0.49777-1.45091,0.73792
		c-0.48572,0.24557-0.98415,0.46242-1.50438,0.63121c-1.01323,0.41025-2.0811,0.64641-3.14189,0.89893
		c-1.07796,0.15112-2.15555,0.33197-3.24097,0.32222c-1.08754,0.08224-2.15608-0.07085-3.23206-0.12849l1.55525-2.20776
		c0.52997,1.10156,0.97986,2.14699,1.42081,3.2332c0.44708,1.07449,0.88341,2.15245,1.28362,3.24428
		c0.80872,2.18036,1.52499,4.39705,2.13457,6.65009c1.26706,4.48787,2.17607,9.13893,2.28494,13.92888
		c0.04588,1.19539-0.00632,2.39902-0.05504,3.60497c-0.10454,1.20695-0.21188,2.41653-0.45694,3.61769
		c-0.20615,1.20248-0.51053,2.40117-0.87915,3.57921c-0.36565,1.18266-0.85632,2.32635-1.37341,3.46097
		c-0.58101,1.10371-1.14996,2.22231-1.90105,3.2299c-0.67766,1.05467-1.53233,1.98283-2.35628,2.91794
		c-0.88358,0.88423-1.77376,1.75922-2.76979,2.5024c-0.94022,0.82082-2.02296,1.41719-3.03949,2.11447l-0.12238-3.75064
		c1.25285,0.68472,2.38135,1.36119,3.53511,2.08241c1.14256,0.71843,2.2735,1.45055,3.38217,2.21455
		c2.22232,1.52023,4.38483,3.12636,6.47766,4.8243c4.19919,3.37625,8.07172,7.19772,11.43292,11.47025
		c0.84839,1.06113,1.63336,2.17508,2.40813,3.29498c0.73689,1.14865,1.48668,2.28802,2.12798,3.49976
		c0.68704,1.18069,1.25467,2.43619,1.81868,3.68378l0.75591,1.91708l0.62213,1.96863
		c0.22643,0.64874,0.34253,1.33411,0.50603,2.00183c0.16602,0.66806,0.30339,1.34204,0.38237,2.0289
		c0.2424,1.35773,0.29807,2.73761,0.3661,4.11002c-0.04657,1.37524-0.03336,2.75247-0.27515,4.10657
		C200.05971,293.11664,199.94014,293.7059,199.81149,294.29517z M197.50131,296.07733
		c0.18399-1.26556,0.46524-2.51099,0.49252-3.78482c0.13028-1.26309,0.05893-2.53131,0.03036-3.79092
		c-0.13725-1.25748-0.25351-2.51166-0.54765-3.74222c-0.10454-0.62115-0.26553-1.2309-0.45351-1.83453
		c-0.18547-0.6033-0.31975-1.21851-0.56467-1.80429l-0.66969-1.77014l-0.78448-1.72684
		c-0.5668-1.13113-1.12898-2.26657-1.81239-3.34021c-0.63435-1.09894-1.37903-2.13693-2.10489-3.18137
		c-0.7668-1.02048-1.53938-2.03485-2.37755-3.00348c-3.30489-3.91168-7.16701-7.35645-11.22136-10.54126
		c-2.03519-1.58565-4.14105-3.08623-6.30093-4.50175c-1.0773-0.71182-2.17491-1.39159-3.27831-2.05551
		c-1.0948-0.65665-2.24509-1.31099-3.31793-1.87003c-1.05219-0.54831-1.46062-1.8456-0.91248-2.89761
		c0.15591-0.29927,0.37242-0.54634,0.62677-0.73428l0.16316-0.11908c0.84294-0.61766,1.76962-1.13394,2.53098-1.8403
		c0.82611-0.63583,1.54121-1.38019,2.25897-2.11925c0.65715-0.78877,1.35162-1.5531,1.88374-2.4342
		c0.59456-0.83716,1.0636-1.75641,1.54997-2.6631c0.42645-0.9417,0.84099-1.88936,1.15013-2.88803
		c0.33707-0.98448,0.62642-1.99721,0.83055-3.03404c0.23138-1.0304,0.36981-2.08788,0.52982-3.14502
		c0.09744-1.06871,0.20512-2.1394,0.22015-3.22479c0.11792-4.33461-0.41917-8.76056-1.41504-13.09601
		c-0.52106-2.16302-1.14845-4.30704-1.86656-6.42166c-0.35704-1.05798-0.74089-2.10736-1.14964-3.14502
		c-0.41718-1.02528-0.87366-2.07253-1.33379-3.02397c-0.37073-0.7668-0.0497-1.68919,0.7171-2.05995
		c0.23505-0.11363,0.48473-0.16235,0.72865-0.15311l0.10983,0.00496c0.92882,0.03865,1.86162,0.18233,2.78366,0.10223
		c0.93001,0.01189,1.83618-0.15311,2.74835-0.27432c0.89081-0.22197,1.79057-0.41322,2.64259-0.76515
		c0.43816-0.1394,0.85913-0.32454,1.2697-0.53593c0.41371-0.20314,0.83948-0.38002,1.22511-0.64113
		c0.80545-0.45549,1.55673-1.00446,2.29993-1.56664c0.713-0.60612,1.42841-1.20976,2.07565-1.9001
		c0.67102-0.65962,1.28093-1.39323,1.87532-2.13445c0.59621-0.74269,1.14452-1.52817,1.67993-2.32387
		c0.51198-0.81421,1.02628-1.62677,1.48358-2.47978c0.48093-0.83633,0.90388-1.71182,1.3275-2.58383
		c0.83899-1.75063,1.56665-3.56384,2.21901-5.40547c0.65186-1.84229,1.22313-3.71761,1.71909-5.61192
		c0.24838-0.94699,0.4763-1.89926,0.68274-2.85368c0.20612-0.94418,0.39902-1.93346,0.53906-2.83057
		c0.16449-1.05286,1.15129-1.77309,2.20398-1.6086c0.2175,0.03401,0.42064,0.10306,0.60478,0.20033l0.11581,0.06242
		c1.33292,0.71231,2.60675,1.53296,3.98445,2.15509l2.03883,0.98216l2.09018,0.86574
		c1.37837,0.61256,2.83456,1.02808,4.25006,1.53841c1.45401,0.401,2.88275,0.88242,4.36137,1.18944
		c1.46227,0.36664,2.94336,0.65202,4.42496,0.94154c1.4915,0.23386,2.98218,0.48192,4.48672,0.65236
		c1.50043,0.21089,3.01323,0.32237,4.52872,0.436c1.51689,0.0649,3.03813,0.2038,4.56514,0.2
		c1.52737,0.05003,3.05682-0.00513,4.58913-0.0502c1.52997-0.08292,3.06557-0.16136,4.59061-0.35509
		c1.52701-0.17209,3.04939-0.40149,4.56055-0.69232c1.51544-0.2682,3.01289-0.63403,4.50638-1.00546
		c2.98151-0.76433,5.9462-1.62213,8.82449-2.71495c1.44095-0.53923,2.87088-1.10669,4.27679-1.72008
		c1.39621-0.60512,2.82214-1.26408,4.10529-1.95261c0.75208-0.40364,1.68881-0.12106,2.09247,0.63089
		c0.10571,0.19719,0.16431,0.40709,0.17984,0.61667l0.00891,0.1351c0.08655,1.25517,0.09232,2.51529,0.24078,3.76054
		c0.14435,1.24559,0.27252,2.49135,0.5199,3.71678c0.18332,1.23734,0.49152,2.44643,0.78912,3.65601
		c0.31989,1.20248,0.69232,2.39241,1.1087,3.56187c0.43466,1.16499,0.88171,2.32256,1.4071,3.44839
		c0.47495,1.14749,1.09625,2.22826,1.67313,3.32555c0.62418,1.07431,1.25836,2.14188,1.97195,3.16153
		c0.68671,1.03519,1.44675,2.02412,2.22449,2.99457c0.77768,0.97308,1.60956,1.90141,2.45859,2.81537
		c0.87054,0.89381,1.74634,1.78366,2.67813,2.61818c0.91861,0.84657,1.87137,1.66029,2.85672,2.43304
		c0.97534,0.78481,1.98724,1.52684,3.01733,2.24162c2.06076,1.4299,4.21585,2.72966,6.43649,3.89862
		c1.112,0.58002,2.23553,1.14104,3.38617,1.62775c1.12915,0.48671,2.34402,0.97276,3.41422,1.3204
		c1.12601,0.36565,1.74237,1.57491,1.37671,2.70093c-0.1384,0.42609-0.39752,0.77919-0.72733,1.03369l-0.16119,0.12453
		c-0.88062,0.68159-1.84247,1.26541-2.62463,2.04906c-0.85284,0.70885-1.55756,1.55542-2.29495,2.36435
		c-0.6499,0.88242-1.3295,1.73824-1.8555,2.70074c-0.29547,0.45914-0.56601,0.93329-0.78809,1.43668
		c-0.22382,0.50124-0.5145,0.96565-0.6879,1.49249l-0.58762,1.54221l-0.474,1.59207
		c-0.28061,1.07449-0.56335,2.15427-0.71808,3.27153c-0.20776,1.10291-0.29117,2.23866-0.38696,3.36864
		c-0.05963,1.13742-0.12949,2.27846-0.11414,3.43091c0.01242,1.15045,0.04031,2.30571,0.12436,3.46558
		c0.05798,1.15988,0.19241,2.32057,0.31747,3.48358c0.25842,2.32884,0.66174,4.657,1.16183,6.97246
		c0.50272,2.31546,1.11691,4.61638,1.82263,6.89301c0.69098,2.2702,1.5412,4.54272,2.47183,6.66956l0.01257,0.02859
		c0.30865,0.7052-0.01291,1.52716-0.71811,1.83585c-0.14944,0.0654-0.31,0.10254-0.4639,0.11362
		c-1.0365,0.07086-2.07846,0.11462-3.11365,0.20496c-1.02347,0.15161-2.06854,0.2175-3.07599,0.4502
		c-1.00992,0.21851-2.02942,0.40695-3.00812,0.72751c-1.00034,0.25864-1.95856,0.62546-2.91611,0.99438
		c-3.80743,1.51843-7.22662,3.92191-9.8476,7.04745c-0.62628,0.80496-1.24561,1.61371-1.78665,2.48108
		c-0.54449,0.86227-1.05829,1.74817-1.49744,2.67386c-0.46078,0.91296-0.85913,1.86176-1.20941,2.82709
		c-0.36319,0.96036-0.66956,1.94534-0.93213,2.94189c-0.53412,1.99142-0.88721,4.03616-1.09299,6.09464
		c-0.09052,1.03009-0.16666,2.06311-0.1792,3.095c-0.01651,1.01651-0.00259,2.09415,0.08011,3.03088
		c0.07281,0.82446-0.53644,1.55179-1.36087,1.62463c-0.36511,0.0322-0.71133-0.06937-0.98993-0.26425l-0.05798-0.04062
		c-1.31808-0.92355-2.59637-1.90555-3.94269-2.78152c-1.36981-0.83734-2.67532-1.78299-4.0993-2.52322l-2.09808-1.17523
		l-2.1622-1.04593c-1.42313-0.74005-2.93842-1.2644-4.40845-1.89346c-1.51743-0.4968-3.00415-1.10092-4.55774-1.47781
		c-1.52882-0.46704-3.08458-0.82544-4.64925-1.15079c-1.5683-0.29248-3.1442-0.58151-4.73528-0.73163
		c-1.58759-0.19702-3.18532-0.27432-4.78467-0.3407c-1.59984-0.01025-3.20262-0.02725-4.80217,0.0885
		c-1.60182,0.05997-3.19621,0.2626-4.78859,0.45535c-1.59361,0.19934-3.17627,0.48389-4.75365,0.80048
		c-1.57442,0.33347-3.1371,0.72272-4.68938,1.15872c-3.09894,0.88986-6.13579,2.00647-9.10574,3.28342
		c-1.48489,0.63898-2.94502,1.33792-4.37607,2.08887c-1.42479,0.74963-2.85104,1.55276-4.16287,2.4238
		c-0.43121,0.28622-1.01271,0.16879-1.29877-0.26242c-0.13261-0.19968-0.1785-0.43155-0.14697-0.65137L197.50131,296.07733z"/>
	<path fill="#E6F0FF" d="M177.43633,333.78372c1.69183-1.0408,3.39754-2.01587,5.15228-2.92752
		c2.41356-1.23071,4.85948-2.40283,7.36652-3.43057c2.49696-1.05286,5.03787-2.00134,7.61192-2.85287
		c2.5825-0.82458,5.1888-1.58002,7.82629-2.21469c2.63487-0.64459,5.29681-1.18134,7.97495-1.62231
		c2.6785-0.44788,5.37723-0.75342,8.08179-1.01089l4.0674-0.25864c1.35741-0.05334,2.7171-0.05466,4.07582-0.08389
		c1.35956-0.05466,2.71761,0.05432,4.07683,0.07779c1.36053,0.01981,2.7171,0.1062,4.07137,0.23666
		c2.71744,0.16483,5.40828,0.57507,8.10541,0.93774c2.67003,0.51593,5.36385,0.9389,7.99161,1.65384
		c2.65933,0.59323,5.2486,1.43286,7.85092,2.23206c1.30371,0.39191,2.55789,0.92569,3.83618,1.39026
		c1.27051,0.48587,2.55756,0.93198,3.78815,1.5123c2.49197,1.08969,4.98514,2.17609,7.37805,3.46692
		c2.44888,1.18481,4.7822,2.57425,7.12338,3.94965c2.37262,1.32471,4.56107,2.93823,6.84943,4.39441
		c2.22791,1.54468,4.36203,3.21899,6.54568,4.82248l-2.43567,1.33444c-0.13806-1.94336-0.12122-3.75641-0.06506-5.62479
		c0.05316-1.85501,0.21765-3.70111,0.41006-5.54306c0.22397-1.83865,0.47894-3.6745,0.84662-5.4917
		c0.34-1.82129,0.77338-3.62726,1.28253-5.41141c0.49695-1.78696,1.07352-3.55609,1.7536-5.28656
		c0.31512-0.87466,0.67896-1.73065,1.06592-2.57773c0.36383-0.85648,0.75656-1.70007,1.19717-2.52222
		c0.82181-1.67068,1.77969-3.27716,2.7966-4.83917c0.5354-0.76416,1.02725-1.55905,1.60013-2.29645l1.73297-2.20102
		c1.24661-1.3934,2.50455-2.77374,3.89529-4.02579c0.65747-0.66589,1.38828-1.24854,2.11545-1.83517
		c0.7272-0.5863,1.43323-1.20117,2.22049-1.70621c0.77145-0.52551,1.53098-1.07068,2.31381-1.57822l2.42447-1.39786
		c0.79321-0.49628,1.66193-0.84128,2.49628-1.25531c0.84692-0.38663,1.66956-0.83386,2.55081-1.13446l2.6076-0.99255
		c0.86887-0.33231,1.77408-0.54617,2.65964-0.82446c1.76813-0.58099,3.58862-0.92831,5.39853-1.32404
		c1.80811-0.41107,3.65335-0.56299,5.47534-0.88867c1.83337-0.21289,3.67484-0.3432,5.51447-0.51727l-1.15866,2.04211
		c-1.935-3.59488-3.52295-7.24149-5.10263-10.94455c-0.78235-1.8494-1.52271-3.71762-2.21338-5.60614
		c-0.69891-1.88522-1.36154-3.78699-1.95889-5.71182c-0.62164-1.91696-1.17194-3.86014-1.68524-5.81506
		c-0.52301-1.95312-0.95459-3.93265-1.37936-5.91696c-0.37967-1.99506-0.72156-3.99969-0.9483-6.02728
		c-0.14798-1.0081-0.22064-2.02809-0.30618-3.04659c-0.09119-1.01784-0.17639-2.03683-0.19391-3.06377
		c-0.11511-2.04724-0.0611-4.1067-0.01385-6.16798c0.14334-2.06277,0.33426-4.12289,0.70221-6.17197
		c0.1351-1.02939,0.36401-2.04625,0.60925-3.06094c0.23816-1.01537,0.44412-2.03767,0.78928-3.02975
		c0.328-0.99438,0.59372-2.00842,0.97806-2.98514l1.21649-2.90688c0.95526-1.87367,1.89087-3.76418,3.10754-5.48953
		c0.56448-0.88985,1.15063-1.76318,1.83783-2.56352c0.67233-0.80859,1.28589-1.66904,2.01288-2.42627l2.20349-2.24857
		c0.73328-0.7498,1.58173-1.36913,2.36786-2.05731c1.54926-1.41669,3.36331-2.45667,5.04852-3.67236l0.42874,3.93546
		c-2.18811-0.86871-4.13412-1.81142-6.13068-2.82727c-1.97968-1.00677-3.90802-2.09761-5.81223-3.22578
		c-3.81274-2.24806-7.48874-4.72356-10.99231-7.42909c-1.74799-1.35757-3.46078-2.76122-5.11942-4.22926
		c-1.65417-1.47151-3.28394-2.97507-4.82697-4.56682c-1.57684-1.55675-3.0545-3.21588-4.50357-4.89334
		c-0.70636-0.8555-1.43237-1.69464-2.12122-2.56433l-2.01373-2.65187c-1.27432-1.81718-2.57407-3.62132-3.70123-5.53745
		c-1.20529-1.86787-2.21786-3.8494-3.28503-5.79771c-0.93878-2.01421-1.95911-3.99193-2.74457-6.07352
		c-0.88388-2.04097-1.5668-4.15692-2.27368-6.26262c-0.34781-1.0545-0.58975-2.1409-0.88901-3.20927
		c-0.28488-1.07283-0.5899-2.14023-0.78381-3.23354l-0.66028-3.2598c-0.20877-1.08804-0.3237-2.19176-0.4892-3.28624
		c-0.36383-2.18712-0.47943-4.39902-0.66095-6.60201c-0.16681-2.20414-0.11774-4.41605-0.18497-6.62117l2.25549,1.43386
		c-2.54898,1.1242-5.05502,2.06491-7.61554,2.983c-2.55032,0.91479-5.12555,1.7465-7.71414,2.5285
		c-5.18488,1.53808-10.41675,2.90636-15.70383,4.03106c-2.64307,0.5612-5.29764,1.07713-7.96832,1.49498
		c-2.66095,0.47466-5.33777,0.86787-8.02069,1.21519c-2.68523,0.33476-5.37723,0.6109-8.0755,0.8768
		c-2.70158,0.20595-5.40813,0.42412-8.12392,0.48572c-2.71429,0.13213-5.43454,0.08556-8.15677,0.06029
		c-2.71858-0.14171-5.44147-0.2588-8.15329-0.56268c-2.72273-0.19505-5.41275-0.69464-8.11003-1.10719
		c-2.67648-0.545-5.37195-1.0099-8.00385-1.76268c-2.66112-0.63106-5.25352-1.51413-7.8618-2.33081
		c-1.29266-0.44476-2.56335-0.95442-3.84511-1.42891c-1.28621-0.46507-2.55608-0.97028-3.79735-1.54666l-3.75034-1.65947
		l-3.65184-1.86574l-1.82217-0.9379l-1.76945-1.03485l-3.53709-2.06971l2.91678-1.3422
		c-0.31065,1.77144-0.67052,3.43304-1.07036,5.12637c-0.39653,1.68423-0.82924,3.35708-1.29761,5.02
		c-0.93559,3.32587-2.00266,6.61458-3.21535,9.8539c-0.60037,1.62181-1.25916,3.22313-1.93117,4.81868
		c-0.69498,1.5873-1.4124,3.16484-2.18895,4.71777c-0.7858,1.5475-1.57161,3.09746-2.46608,4.59244
		c-0.84972,1.51791-1.81157,2.97589-2.7635,4.43718c-0.99472,1.43748-2.0119,2.85963-3.12766,4.2162
		c-0.52554,0.70108-1.13216,1.34187-1.71317,2.00133c-0.57605,0.66425-1.17094,1.31215-1.81586,1.9176
		c-1.22479,1.26987-2.5901,2.40414-3.95738,3.52998l-2.16437,1.55707c-0.73064,0.5062-1.52206,0.92734-2.28094,1.39308
		c-0.74896,0.48587-1.58002,0.8289-2.38266,1.22031l-1.21223,0.5726l-1.26125,0.46011
		c-1.66444,0.67201-3.41855,1.05368-5.15926,1.46756c-1.77161,0.24228-3.5399,0.53955-5.32634,0.51857
		c-1.78633,0.13493-3.55034-0.12502-5.32277-0.21982l1.49018-2.34914c1.04608,1.72189,1.96929,3.42264,2.91447,5.14816
		c0.93559,1.72238,1.82957,3.46526,2.68738,5.22612c1.72073,3.52008,3.27548,7.12059,4.71017,10.77577
		c0.72717,1.8243,1.38812,3.67632,2.03502,5.53529c0.61455,1.87085,1.21025,3.75014,1.72836,5.65733
		c0.51013,1.90785,1.01584,3.82297,1.38165,5.77492c0.42197,1.93874,0.7052,3.91167,0.985,5.88574l0.30336,2.98399
		c0.08406,0.99738,0.10207,2.00398,0.15491,3.00679c0.06128,1.00198-0.00758,2.01306-0.02823,3.021
		c-0.01024,1.00842-0.06854,2.01718-0.19221,3.02594c-0.14801,2.02065-0.52885,4.02859-0.93596,6.02661l-0.7924,2.96814
		c-0.31477,0.97589-0.69595,1.93445-1.04427,2.90175c-0.31494,0.98119-0.86772,1.86905-1.29675,2.80447
		c-0.23471,0.45914-0.44644,0.93031-0.7016,1.37805l-0.82428,1.31165c-1.03519,1.79175-2.3774,3.37276-3.68141,4.96303
		l-2.15991,2.20299c-0.70386,0.75259-1.55344,1.33427-2.32471,2.00711c-1.52766,1.37936-3.3166,2.36697-4.98483,3.53131
		l-0.2033-3.75262c2.01206,0.98267,3.8735,1.99472,5.75708,3.06659c1.86775,1.0748,3.72141,2.16995,5.53529,3.32767
		c3.63866,2.29727,7.17873,4.74982,10.59758,7.36865c1.7057,1.31329,3.40248,2.64212,5.02843,4.05865
		c1.64774,1.38876,3.23238,2.8555,4.79871,4.33859l2.31033,2.26852l2.23073,2.35132c1.44281,1.60989,2.89299,3.21503,4.21918,4.9295
		c1.3782,1.66837,2.62048,3.45203,3.85785,5.23022l1.76299,2.73727l1.61453,2.83221c0.56087,0.93048,0.99258,1.93509,1.4778,2.90802
		c0.48804,0.9726,0.94749,1.9584,1.32899,2.98151c0.85995,2.00348,1.48506,4.09616,2.12387,6.17807
		c0.49286,2.12503,1.037,4.23718,1.27003,6.40912c0.16531,1.07697,0.31148,2.15494,0.33476,3.24625
		c0.04178,1.08771,0.1526,2.17227,0.13496,3.25882l-0.11795,3.25732c-0.02065,1.08572-0.2403,2.15625-0.35178,3.23306
		C178.06325,331.01077,177.7554,332.39841,177.43633,333.78372z M175.15439,335.50842
		c0.32903-2.05783,0.86475-4.08078,0.96284-6.16171c0.06837-1.03552,0.24608-2.06345,0.22643-3.10144l0.00116-3.10669
		c-0.01949-1.03369-0.16548-2.06262-0.24043-3.09235c-0.05667-1.03302-0.23405-2.05154-0.42844-3.06689
		c-0.29068-2.04691-0.88474-4.03223-1.41768-6.02234c-0.68027-1.95193-1.33691-3.90686-2.22313-5.77805
		c-0.38399-0.95822-0.84047-1.88522-1.32751-2.79871c-0.48323-0.91412-0.90933-1.85583-1.46738-2.73148l-1.59853-2.66162
		l-1.7437-2.57455c-1.22461-1.67383-2.44807-3.35196-3.81058-4.92422c-1.30736-1.61438-2.74156-3.12817-4.16386-4.64526
		l-2.20183-2.21671l-2.28139-2.13907c-1.54703-1.39819-3.11021-2.78119-4.73813-4.09003
		c-1.60364-1.3356-3.25551-2.61768-4.92917-3.8689c-3.34816-2.50241-6.81937-4.84708-10.38271-7.03833
		c-1.77623-1.10474-3.58995-2.14667-5.41193-3.16699c-1.8152-1.00696-3.69812-1.99655-5.50952-2.85486
		c-1.06458-0.50436-1.51875-1.77637-1.01437-2.84097c0.15723-0.3316,0.3891-0.60413,0.66573-0.80676l0.14517-0.10521
		c1.48473-1.07878,3.11248-1.98299,4.44659-3.23419c0.6768-0.60976,1.44112-1.13164,2.04923-1.80844l1.88554-1.96648
		c1.12222-1.41901,2.29366-2.80943,3.17459-4.39407l0.71181-1.15393c0.21899-0.39488,0.39638-0.81355,0.59753-1.21851
		c0.36568-0.82825,0.84326-1.60315,1.11742-2.47366c0.31065-0.85303,0.65781-1.6925,0.94518-2.5551l0.72701-2.63899
		c0.37474-1.79124,0.73973-3.59258,0.88672-5.43718c0.12238-0.91429,0.18315-1.83734,0.19818-2.76698
		c0.02576-0.92751,0.10059-1.85187,0.04988-2.78548c-0.02098-0.93196-0.00496-1.86426-0.05385-2.7982l-0.19472-2.80414
		c-0.20595-1.86707-0.4109-3.73924-0.75475-5.59854c-0.28671-1.86607-0.71558-3.71579-1.13742-5.56436
		c-0.43253-1.84839-0.94319-3.68077-1.47299-5.51035c-0.56285-1.82016-1.13972-3.63849-1.78416-5.43686
		c-1.28456-3.59787-2.78102-7.12456-4.39371-10.59641c-1.6192-3.4547-3.37263-6.91333-5.34011-10.116
		c-0.44688-0.72749-0.21949-1.67944,0.50785-2.12651c0.27299-0.16763,0.57754-0.2403,0.87498-0.22742l0.10735,0.00462
		c1.62511,0.06837,3.25253,0.31114,4.87137,0.1711c1.62891,0.01569,3.22247-0.27316,4.82347-0.49216
		c1.56616-0.39026,3.14618-0.73296,4.64247-1.35245l1.13544-0.418l1.09235-0.52701c0.72368-0.35953,1.4738-0.66573,2.15196-1.11676
		c0.68716-0.43022,1.4041-0.81058,2.06851-1.27797l1.97308-1.43567c1.25104-1.04724,2.50522-2.09415,3.63817-3.28523
		c0.59589-0.56252,1.14769-1.1716,1.68326-1.7977c0.54021-0.62082,1.1044-1.21901,1.59587-1.88539
		c1.04179-1.27979,1.99654-2.63206,2.9328-3.99953c0.89529-1.39687,1.78564-2.7982,2.58118-4.2618
		c0.83536-1.43748,1.56996-2.9384,2.30489-4.43437c0.72652-1.50256,1.39754-3.03304,2.04774-4.57343
		c0.62823-1.55046,1.24426-3.10622,1.80463-4.68507c1.13216-3.15262,2.12537-6.35941,2.98994-9.59956
		c0.43289-1.61983,0.83105-3.24907,1.19261-4.88359c0.36198-1.62429,0.69724-3.29696,0.9534-4.88244
		c0.17027-1.05401,1.16284-1.77045,2.21684-1.60017c0.23106,0.03733,0.44592,0.11412,0.63866,0.22247l0.06143,0.03534l3.43536,1.947
		l1.71677,0.97341l1.76996,0.87334l3.54204,1.7389l3.63438,1.53642c1.20132,0.53593,2.43092,1.00166,3.67598,1.42792
		c1.24063,0.43568,2.46855,0.90686,3.71826,1.31429c2.52339,0.74352,5.0182,1.57953,7.58849,2.1551
		c2.54221,0.67844,5.12769,1.17589,7.7054,1.71198c2.60017,0.41388,5.1916,0.89761,7.81325,1.19489
		c2.61177,0.37804,5.24545,0.57324,7.87898,0.79572c2.63783,0.1488,5.2798,0.35458,7.93022,0.36548
		c2.64969,0.09035,5.30238,0.00281,7.95689-0.06029l3.98053-0.19835l3.96996-0.36961
		c2.6423-0.28902,5.28725-0.59471,7.91219-1.03352c2.62711-0.42213,5.2395-0.94154,7.84018-1.50537
		c2.60233-0.55756,5.19144-1.18085,7.7627-1.86806c2.57706-0.66722,5.1196-1.46062,7.65323-2.26987
		c2.52985-0.82164,5.04413-1.69118,7.52457-2.63916c2.4697-0.94253,4.96664-1.94881,7.30359-3.04047
		c0.79239-0.37011,1.73459-0.02791,2.10474,0.7645c0.08783,0.18811,0.13556,0.38464,0.14664,0.57986l0.00446,0.08968
		c0.11429,2.12933,0.10965,4.26575,0.31757,6.38467c0.22247,2.11726,0.37607,4.24197,0.7731,6.33215
		c0.18231,1.04657,0.31314,2.10274,0.53625,3.1404l0.70007,3.10588c0.20612,1.04161,0.52206,2.05499,0.81638,3.07333
		c0.30865,1.01389,0.55887,2.04559,0.91364,3.04378c0.70358,1.99837,1.35358,4.01521,2.21402,5.95264
		c0.75839,1.97903,1.74783,3.85567,2.65088,5.76947c1.03223,1.84923,2.00497,3.73164,3.168,5.50473
		c1.08405,1.81999,2.3389,3.53247,3.56421,5.25916l1.93918,2.51974c0.66364,0.82643,1.36417,1.62379,2.04379,2.4375
		c1.39621,1.59489,2.81641,3.17491,4.33725,4.65701c1.48557,1.5161,3.0575,2.94849,4.65222,4.35097
		c1.59933,1.39934,3.25186,2.73775,4.93857,4.03223c3.38071,2.58002,6.93118,4.94106,10.60651,7.07964
		c1.83734,1.07002,3.72305,2.05484,5.62991,2.97855c1.88937,0.91263,3.87997,1.80942,5.74274,2.49992
		c1.14334,0.42395,1.72668,1.69464,1.30273,2.83817c-0.14914,0.40231-0.40317,0.73526-0.71942,0.97935l-0.15475,0.11826
		c-1.49774,1.14864-3.14072,2.12074-4.49249,3.43057c-0.68951,0.636-1.44659,1.20348-2.08261,1.89035l-1.91742,2.04707
		c-0.63434,0.68539-1.15112,1.46822-1.73608,2.19275c-0.59885,0.71692-1.09943,1.50305-1.58102,2.30141
		c-1.05005,1.54121-1.83652,3.24031-2.65598,4.91118l-1.03851,2.60216c-0.34546,0.86755-0.57953,1.78102-0.87747,2.66838
		c-0.31461,0.88324-0.49744,1.81009-0.71426,2.72586c-0.22379,0.91429-0.435,1.83188-0.55692,2.7726
		c-0.35492,1.85782-0.48141,3.7556-0.68719,5.64627c-0.09427,1.90488-0.20364,3.81175-0.14896,5.73265
		c-0.01303,0.95871,0.04077,1.91908,0.09958,2.87994c0.05334,0.96086,0.09232,1.92288,0.20642,2.88292
		c0.16284,1.92339,0.43784,3.83932,0.68326,5.76353c0.30917,1.91577,0.62363,3.83437,1.03055,5.7404
		c0.39688,1.90652,0.83105,3.81076,1.33774,5.69812c0.48425,1.89316,1.03485,3.77246,1.62265,5.6405
		c0.57919,1.87119,1.20941,3.72882,1.88211,5.57144c0.65448,1.85007,1.39468,3.66858,2.16812,5.4704
		c0.76895,1.79587,1.59421,3.60281,2.45551,5.30704c0.35144,0.69479,0.07315,1.54288-0.62164,1.89413
		c-0.17041,0.0864-0.35773,0.13477-0.53726,0.14832c-1.77786,0.12518-3.56351,0.2048-5.33942,0.36465
		c-1.76019,0.25369-3.54517,0.41257-5.2796,0.80151c-1.73694,0.37686-3.48871,0.70337-5.17545,1.25632
		c-0.84573,0.26425-1.7149,0.46442-2.54187,0.78l-2.48392,0.93909c-0.84195,0.28223-1.61914,0.70734-2.42395,1.07169
		c-0.79126,0.39124-1.62015,0.71362-2.3688,1.18298l-2.29678,1.31577l-2.18695,1.48557
		c-0.74619,0.47299-1.41074,1.05368-2.09808,1.60464c-0.68741,0.55127-1.37939,1.09744-1.99921,1.72552
		c-1.31708,1.17471-2.47714,2.50372-3.64511,3.82263l-1.61453,2.09399c-0.53445,0.70041-0.99057,1.45929-1.49036,2.18497
		c-0.9465,1.48688-1.83914,3.01489-2.603,4.60928c-0.41074,0.7825-0.77573,1.58777-1.11313,2.40643
		c-0.3602,0.80811-0.69861,1.62527-0.99026,2.46277c-0.63171,1.65369-1.16544,3.34818-1.62344,5.0618
		c-0.47119,1.70999-0.8631,3.4451-1.16876,5.19559c-0.33234,1.74567-0.55545,3.51166-0.75015,5.27847
		c-0.16284,1.76993-0.30075,3.54453-0.33017,5.32007c-0.035,1.7594-0.02179,3.58218,0.1181,5.25949
		c0.0697,0.83618-0.55161,1.57062-1.38791,1.64029c-0.37411,0.03122-0.72772-0.07596-1.01074-0.27878l-0.03738-0.02692
		c-2.15326-1.54633-4.26953-3.14618-6.44974-4.64908c-2.23849-1.41254-4.3797-2.98679-6.6958-4.26886
		c-2.28574-1.33347-4.56253-2.68292-6.94803-3.82678c-2.33212-1.25137-4.75824-2.29813-7.18152-3.35065
		c-1.19705-0.56216-2.44757-0.98944-3.68179-1.45764c-1.24261-0.44409-2.46045-0.96136-3.71771-1.36102
		c-2.51434-0.80133-5.01758-1.64691-7.58919-2.24905c-2.54153-0.72421-5.14816-1.15973-7.73364-1.69183
		c-2.61206-0.37888-5.21951-0.80911-7.8557-0.99704c-1.31346-0.14203-2.63004-0.24097-3.95126-0.27399
		c-1.31993-0.03683-2.63869-0.15988-3.96037-0.12024l-3.96405,0.03699l-3.96056,0.20743
		c-2.63486,0.22198-5.26724,0.48953-7.8831,0.89713c-2.61505,0.40082-5.21786,0.89514-7.79723,1.49579
		c-2.58153,0.59061-5.13545,1.30026-7.66855,2.07782c-2.52721,0.7952-5.04234,1.63831-7.5094,2.61188
		c-2.47961,0.94238-4.90176,2.02826-7.29332,3.17096c-2.37741,1.1564-4.74321,2.40662-6.9411,3.80316
		c-0.436,0.27695-1.01389,0.14813-1.29085-0.28787c-0.12717-0.20016-0.16878-0.43021-0.13443-0.6474L175.15439,335.50842z"/>
	<path fill="#E6F0FF" d="M161.74507,361.42612c2.22694-1.43979,4.48409-2.78101,6.8045-4.03848
		c2.98431-1.59473,6.01572-3.10507,9.12027-4.45139c3.09023-1.38068,6.24611-2.60876,9.43143-3.75659
		c3.20398-1.09448,6.43752-2.10471,9.71069-2.97839c3.27368-0.87201,6.58138-1.61304,9.91037-2.24954l5.01472-0.8418l5.0466-0.64044
		c3.37772-0.30753,6.76022-0.58286,10.15546-0.63785c1.6958-0.09198,3.39291-0.03781,5.09019-0.01254
		c1.69778,0.01752,3.3954,0.04144,5.08789,0.18878c1.69215,0.13312,3.39275,0.18478,5.0788,0.3858l5.05849,0.61139
		c1.68309,0.2251,3.34799,0.57111,5.02332,0.85153l2.50703,0.45547l2.48045,0.58286c1.64804,0.40958,3.3204,0.73178,4.94897,1.21436
		l4.88705,1.44742c1.64542,0.43466,3.20911,1.11182,4.81342,1.6687c1.58548,0.60712,3.21323,1.11099,4.7536,1.82874
		c3.11679,1.34799,6.25485,2.65073,9.25107,4.24976c1.50488,0.7825,3.05453,1.48373,4.52176,2.33377l4.40546,2.54404
		l2.19885,1.27762l2.12653,1.39273l4.25189,2.78632c2.79373,1.91495,5.45963,4.00861,8.19357,6.00449l-2.44031,1.3371
		c-0.17191-2.38333-0.15472-4.63818-0.08768-6.9472c0.06323-2.29596,0.26425-4.58185,0.49957-6.86261
		c0.27487-2.27649,0.5878-4.54999,1.04031-6.80005c0.2048-1.12881,0.44443-2.2507,0.72006-3.36548
		c0.24445-1.12158,0.54568-2.22958,0.86078-3.33429c0.28772-1.11182,0.64362-2.2048,1.00531-3.29581
		c0.33627-1.09909,0.74203-2.17523,1.15805-3.24792c0.38879-1.08258,0.83783-2.14188,1.31561-3.19009
		c0.44891-1.05997,0.93359-2.10388,1.47763-3.12106c1.01453-2.06741,2.19702-4.05469,3.45221-5.98715
		c0.66144-0.94534,1.26837-1.92883,1.97571-2.84097l2.13962-2.72305l2.33112-2.56268
		c0.77124-0.85947,1.65961-1.60532,2.48422-2.41223c0.8129-0.82297,1.71613-1.54272,2.61539-2.26758
		c0.89874-0.72437,1.77127-1.48441,2.74466-2.10818c0.95395-0.6492,1.89285-1.32303,2.86032-1.95029l2.99786-1.72736
		c0.98056-0.61353,2.05548-1.03946,3.08722-1.55127c1.04739-0.47778,2.06442-1.03107,3.15475-1.40231l3.22595-1.22711
		c1.0748-0.41107,2.19553-0.67514,3.29117-1.01932c2.18781-0.71875,4.44214-1.14764,6.68277-1.63733
		c2.23782-0.50919,4.52438-0.70041,6.78302-1.07831c2.27151-0.25763,4.55313-0.41321,6.83157-0.62344l-1.18958,1.92139
		c-2.0466-4.67484-3.70291-9.39343-5.25702-14.19379c-1.56253-4.78714-2.9209-9.64612-4.04361-14.56985
		c-0.564-2.46045-1.08228-4.9361-1.50391-7.4314c-0.45764-2.4892-0.79883-5.00183-1.11661-7.5191l-0.39783-3.78963l-0.23203-3.81026
		c-0.08212-2.54469-0.17163-5.09631-0.0542-7.65239c0.03275-2.55608,0.27829-5.11249,0.52237-7.66676l0.52899-3.82214
		c0.21637-1.26871,0.51611-2.52669,0.77164-3.79028c0.23035-1.26936,0.62262-2.50653,0.96347-3.75394
		c0.33575-1.24939,0.69363-2.49266,1.16449-3.70473c0.46243-1.21222,0.82379-2.46161,1.37329-3.64197l1.60989-3.55426
		c1.26215-2.27913,2.47879-4.58731,4.02478-6.69533l1.10406-1.61339c0.38034-0.52849,0.81833-1.01469,1.2251-1.52354
		c0.84509-0.99174,1.62067-2.04543,2.52637-2.98085l2.75311-2.77029c0.90915-0.93163,1.96844-1.69595,2.94632-2.54947
		l1.49631-1.24658c0.50668-0.4043,1.05814-0.74715,1.58514-1.1232l3.19785-2.20364l0.45221,3.97044
		c-2.77405-1.05731-5.31036-2.22478-7.89087-3.46722c-2.56448-1.23436-5.07071-2.57326-7.54916-3.9584
		c-2.47617-1.38812-4.93347-2.8119-7.32208-4.34618c-2.40414-1.50851-4.75974-3.09663-7.06116-4.75974
		c-1.16498-0.81172-2.29712-1.6692-3.42215-2.53642c-1.13901-0.84856-2.25235-1.73048-3.34381-2.64098
		c-2.21674-1.77689-4.34589-3.66542-6.43311-5.59491c-2.09448-1.92519-4.08459-3.95938-6.05603-6.01257
		c-1.90701-2.11397-3.82196-4.22215-5.58032-6.46675c-0.91632-1.091-1.78305-2.22182-2.61096-3.38318
		c-0.82526-1.16202-1.7298-2.26689-2.48538-3.47862l-2.35196-3.57343l-2.16187-3.69366
		c-0.7493-1.21504-1.35855-2.50851-2.01471-3.77524c-0.64062-1.27516-1.32748-2.52768-1.86707-3.85123l-1.71539-3.92322
		l-1.47058-4.02149c-0.51526-1.33213-0.90967-2.7039-1.29877-4.07698c-0.37903-1.37507-0.83649-2.72916-1.14896-4.12058
		c-0.60562-2.7868-1.3049-5.55378-1.66196-8.38369c-0.19504-1.41025-0.48389-2.8086-0.60031-4.22743l-0.3754-4.25155
		c-0.1622-1.41471-0.17126-2.83701-0.20316-4.25766l-0.09726-4.26047l2.27185,1.4015
		c-3.1181,1.48621-6.21588,2.75476-9.37067,3.9944c-3.14481,1.23601-6.32718,2.36351-9.52521,3.43932
		c-3.20316,1.05996-6.42285,2.06723-9.66397,2.99935c-3.23587,0.94947-6.49631,1.81818-9.77774,2.59721
		c-1.63568,0.41074-3.2803,0.78382-4.93167,1.12767c-1.64624,0.36697-3.29794,0.70653-4.95572,1.019
		c-3.30276,0.68935-6.63293,1.24525-9.96754,1.76995l-5.01506,0.71825l-5.03421,0.60133
		c-1.67731,0.21866-3.36765,0.30768-5.05222,0.46754c-1.68489,0.16483-3.37457,0.26722-5.06691,0.33774
		c-3.38197,0.21718-6.77411,0.23452-10.16801,0.24558c-3.39073-0.13542-6.78896-0.19488-10.17358-0.53097
		c-3.39742-0.19058-6.75548-0.77737-10.12857-1.21404c-3.34288-0.64014-6.71135-1.16284-10.00186-2.05946
		c-3.3257-0.7427-6.57344-1.78333-9.8311-2.77755c-1.62263-0.51644-3.20625-1.15261-4.81059-1.72355
		c-1.60562-0.57011-3.19936-1.16945-4.74998-1.87928l-4.68854-2.0304l-4.56238-2.29977l-2.27779-1.15475l-2.20792-1.28324
		l-4.41359-2.56797l2.90935-1.33891c-0.3792,2.17904-0.82362,4.24561-1.31578,6.34174
		c-0.48853,2.08721-1.02197,4.16121-1.59949,6.22266c-1.15411,4.12322-2.47105,8.2007-3.96817,12.21641
		c-0.74138,2.01041-1.55476,3.99523-2.38449,5.97278c-0.85831,1.96715-1.74419,3.92223-2.70306,5.84628
		c-0.97044,1.91694-1.94072,3.8375-3.04507,5.68855c-1.04892,1.8806-2.23703,3.68491-3.41127,5.49449l-1.86888,2.64989
		c-0.63535,0.87466-1.33147,1.70853-1.99486,2.56401c-0.64893,0.86722-1.39757,1.65848-2.11482,2.47351
		c-0.71095,0.82082-1.4451,1.62164-2.2408,2.36879c-1.511,1.5688-3.19441,2.96799-4.87964,4.35774l-2.66689,1.92075
		c-0.89976,0.62428-1.8745,1.14285-2.8091,1.71742c-0.92219,0.59952-1.94501,1.02148-2.9333,1.50406l-1.492,0.70619
		l-1.55225,0.56682c-2.04826,0.82907-4.20732,1.2986-6.34969,1.81024c-2.18118,0.29843-4.35774,0.66672-6.55891,0.64146
		c-2.20001,0.16829-4.37608-0.1526-6.56089-0.26723l1.51776-2.30438c1.22643,2.17969,2.30802,4.34535,3.40514,6.53941
		c1.08605,2.1911,2.12388,4.40431,3.11116,6.64034c1.98185,4.46906,3.7622,9.02762,5.36964,13.65358
		c0.81916,2.30785,1.55442,4.64691,2.26574,6.9949l0.99868,3.54503l0.8877,3.5797c0.53959,2.40001,1.07634,4.80647,1.44526,7.24925
		c0.43749,2.42924,0.70058,4.894,0.95178,7.35875l0.25632,3.71579l0.06259,3.73561c0.05219,1.24525-0.1014,2.49513-0.14682,3.74287
		c-0.04129,1.24939-0.1739,2.49513-0.34814,3.73958c-0.24905,2.49562-0.78613,4.96599-1.35129,7.42067l-1.04955,3.64511
		c-0.42609,1.1924-0.90339,2.37012-1.35574,3.5551c-0.40743,1.20445-1.10091,2.29018-1.64262,3.43799
		c-0.29645,0.56219-0.56103,1.14204-0.88503,1.68871l-1.02976,1.60843c-1.29448,2.1982-2.96055,4.13824-4.57442,6.09731
		l-2.67368,2.71347c-0.86655,0.93213-1.9209,1.64856-2.87383,2.48059l-1.46623,1.20499
		c-0.49315,0.39505-1.03882,0.71411-1.55592,1.07416l-3.14502,2.09729l-0.19653-3.75543
		c2.50885,1.23285,4.86279,2.51215,7.23026,3.86243c2.35281,1.35229,4.68672,2.73312,6.97443,4.18732
		c4.58698,2.88885,9.05405,5.96732,13.37397,9.24744c2.16153,1.63669,4.29465,3.31561,6.36125,5.07584
		c2.08537,1.73691,4.09296,3.56879,6.08604,5.41324l2.93098,2.83289l2.83371,2.93427
		c0.96086,0.96121,1.82643,2.01736,2.74155,3.02332c0.91858,1.00363,1.79489,2.04559,2.6418,3.11395
		c1.75656,2.08179,3.3465,4.30228,4.94769,6.5079l2.25085,3.42081c0.75458,1.13675,1.38943,2.35312,2.0887,3.52554
		c0.71213,1.16614,1.32039,2.39224,1.92142,3.62198c0.60312,1.22791,1.25035,2.43304,1.7397,3.71579
		c0.50639,1.27283,1.06639,2.52289,1.52386,3.81323l1.27069,3.90836c0.6844,2.65073,1.42017,5.29828,1.74948,8.0235
		c0.50685,2.69513,0.57259,5.44592,0.7242,8.17178c-0.07169,2.73627-0.08192,5.47137-0.51147,8.1741
		C162.61163,357.58084,162.1763,359.50372,161.74507,361.42612z M159.46646,363.18964
		c0.43088-2.60629,1.10338-5.17261,1.22957-7.81259c0.34285-2.61768,0.27167-5.2532,0.26968-7.87949
		c-0.2251-2.61667-0.35657-5.24561-0.91974-7.8154c-0.38547-2.59671-1.16928-5.11511-1.89214-7.62976l-1.32307-3.70621
		c-0.4725-1.22296-1.04839-2.40759-1.56499-3.6124c-0.48767-1.21851-1.13478-2.36667-1.73457-3.53479
		c-0.59822-1.16943-1.20137-2.3356-1.9102-3.44693c-0.69547-1.11676-1.32239-2.27332-2.07202-3.3569l-2.23073-3.25946
		c-1.58891-2.10373-3.16039-4.22-4.9016-6.20712c-0.83762-1.01901-1.7052-2.0134-2.61603-2.97177
		c-0.9072-0.96054-1.76103-1.9678-2.7148-2.88608l-2.80579-2.80182l-2.90356-2.70523
		c-1.97523-1.76135-3.96267-3.5105-6.02959-5.16846c-2.03981-1.6879-4.13346-3.31598-6.26328-4.89352
		c-4.25221-3.16614-8.65356-6.13843-13.16836-8.92291c-2.2517-1.40182-4.5475-2.73065-6.85619-4.02924
		c-2.30207-1.28638-4.67698-2.54306-6.99178-3.65402c-1.06606-0.51151-1.51545-1.79028-1.00397-2.85617
		c0.16763-0.34946,0.41784-0.63272,0.71577-0.83749l0.09166-0.06195l2.87946-1.96448
		c0.47283-0.33575,0.97755-0.63205,1.42445-0.99921l1.32734-1.1174c0.85979-0.77011,1.82925-1.42728,2.60183-2.2854l2.40398-2.48326
		c1.43604-1.79356,2.93478-3.54964,4.07797-5.55031l0.91908-1.45749c0.28872-0.49628,0.51957-1.02609,0.78282-1.53674
		c0.47994-1.04559,1.09467-2.02545,1.47367-3.11909l1.25566-3.22397l0.98118-3.33115
		c0.53033-2.25648,1.04757-4.52768,1.29134-6.85403c0.17093-1.15442,0.30355-2.31496,0.34765-3.48871
		c0.05251-1.17126,0.1957-2.33461,0.1713-3.51331l0.03151-3.52966l-0.15442-3.53842
		c-0.18134-2.35674-0.36994-4.72075-0.73279-7.06956c-0.2943-2.35623-0.75475-4.69563-1.20872-7.03389l-0.76321-3.4958
		l-0.87465-3.47516c-0.62891-2.30637-1.28176-4.6091-2.01967-6.88838c-0.7207-2.28424-1.53081-4.5419-2.38036-6.78418
		c-0.83898-2.24643-1.74435-4.46939-2.68474-6.67683c-1.88374-4.3992-3.93742-8.79311-6.26672-12.90807
		c-0.42114-0.74402-0.15941-1.68854,0.58464-2.10968c0.26025-0.14731,0.54501-0.21123,0.82326-0.2l0.10999,0.00496
		c2.03786,0.08818,4.07698,0.39223,6.10953,0.21883c2.04344,0.02014,4.04527-0.33972,6.05585-0.61487
		c1.96781-0.48787,3.95296-0.91843,5.83293-1.69464l1.42673-0.52469l1.37193-0.66046c0.90916-0.45087,1.85137-0.83583,2.7029-1.4005
		c0.86276-0.53906,1.76285-1.01668,2.59671-1.60231l2.47581-1.79903c1.56896-1.31133,3.14121-2.62297,4.56071-4.11298
		c0.74651-0.70439,1.4375-1.46608,2.10818-2.2489c0.67632-0.77623,1.38284-1.52487,1.99786-2.35724
		c0.62808-0.81949,1.28754-1.61339,1.89117-2.45253l1.77773-2.54485c1.12155-1.74271,2.23584-3.49202,3.23155-5.31746
		c1.04575-1.79373,1.96483-3.66525,2.8849-5.53066c0.90901-1.87383,1.74864-3.78152,2.56271-5.70176
		c0.78613-1.93262,1.55721-3.8717,2.25862-5.83933c1.41701-3.92884,2.66078-7.92457,3.74435-11.96207
		c0.54253-2.01867,1.04146-4.0489,1.4953-6.08657c0.45483-2.02726,0.87465-4.10473,1.19968-6.09813
		c0.1716-1.05219,1.16383-1.76615,2.21603-1.59456c0.22989,0.03749,0.44363,0.11412,0.63535,0.22197l0.05829,0.03369
		l4.30606,2.44229l2.15195,1.2218l2.22185,1.08952l4.44572,2.17078l4.56567,1.90587
		c1.50803,0.66888,3.05914,1.22825,4.62117,1.75922c1.56053,0.5318,3.0986,1.12933,4.67615,1.60827
		c3.1698,0.91231,6.31349,1.91116,9.5439,2.59737c3.1946,0.8261,6.45668,1.3493,9.69286,1.99506
		c3.26971,0.46045,6.53101,0.98234,9.82449,1.2811c3.28177,0.4114,6.58963,0.55029,9.89336,0.7678
		c3.31018,0.06622,6.62303,0.2431,9.94176,0.15921c1.65962,0.00231,3.31941-0.0218,4.97772-0.11693
		c1.65782-0.09001,3.32173-0.10867,4.9774-0.25698l4.97343-0.3896l4.95659-0.58679c3.29596-0.4588,6.59079-0.94815,9.86331-1.57061
		c1.64212-0.28159,3.26755-0.64608,4.89383-1.00677c1.62973-0.34501,3.25287-0.71892,4.8674-1.13032
		c3.23865-0.78035,6.45685-1.64955,9.65024-2.59853c3.20453-0.91313,6.3624-1.982,9.50742-3.07581
		c3.1384-1.11347,6.25931-2.27714,9.33429-3.54453c3.06509-1.25946,6.15152-2.59389,9.06183-4.04279
		c0.77689-0.38662,1.71991-0.07052,2.10654,0.7062c0.10089,0.20264,0.15393,0.41652,0.16333,0.62874l0.00235,0.06672
		l0.16727,4.13264c0.05432,1.37721,0.08505,2.75558,0.26755,4.12206l0.43335,4.10671
		c0.13477,1.36978,0.44046,2.71529,0.65137,4.07335c0.38879,2.72585,1.11398,5.3812,1.74008,8.05437
		c0.32285,1.3346,0.78909,2.63007,1.17523,3.94634c0.39636,1.31429,0.79651,2.62676,1.3161,3.89861
		c3.70389,10.3325,9.26031,19.97483,16.21643,28.48701c1.70587,2.15657,3.56879,4.18318,5.4205,6.21687
		c1.91708,1.9754,3.84927,3.93512,5.88705,5.79028c2.03058,1.8593,4.10144,3.68045,6.2608,5.39426
		c1.0621,0.87862,2.14651,1.72948,3.25684,2.54814c1.09579,0.83701,2.19855,1.6646,3.33444,2.44791
		c2.2428,1.6053,4.53943,3.13858,6.88345,4.59409c2.32849,1.48076,4.72421,2.85468,7.13712,4.19127
		c2.4317,1.30206,4.88885,2.55872,7.39044,3.70737c2.48175,1.14418,5.06131,2.26524,7.53595,3.15724
		c1.15723,0.41718,1.75742,1.69348,1.34024,2.85088c-0.15906,0.44128-0.44296,0.80148-0.79755,1.05516l-0.09048,0.06474
		l-2.92621,2.09959c-0.48157,0.35674-0.98938,0.68077-1.44971,1.0631l-1.35574,1.17656
		c-0.88406,0.80414-1.85367,1.51859-2.66922,2.39159l-2.47748,2.5835c-0.81433,0.87019-1.50354,1.8494-2.26324,2.76567
		c-0.36447,0.47084-0.76022,0.91792-1.09961,1.4071l-0.98297,1.49315c-1.38531,1.94171-2.45782,4.08044-3.58582,6.17824
		l-1.4603,3.27168c-0.50967,1.08044-0.83899,2.24113-1.26953,3.35675c-0.43881,1.11479-0.77045,2.26871-1.08292,3.42975
		c-0.31711,1.15871-0.68738,2.30191-0.9014,3.49118c-0.23865,1.18117-0.52274,2.35211-0.72702,3.54138l-0.57123,3.58136
		c-0.28262,2.40463-0.57394,4.81555-0.65866,7.24974c-0.16928,2.42644-0.13693,4.87105-0.11496,7.31136l0.1199,3.6664
		l0.23386,3.66823c0.20776,2.44345,0.43716,4.89053,0.78299,7.32654c0.31033,2.43982,0.71396,4.87204,1.16913,7.29468
		c0.90305,4.84808,2.04263,9.66165,3.38797,14.42038c0.66031,2.38367,1.44394,4.73035,2.23318,7.07254
		c0.79852,2.33115,1.66443,4.67401,2.59326,6.90839c0.29495,0.70947-0.04114,1.52368-0.75046,1.81848
		c-0.13989,0.05814-0.29614,0.09235-0.43933,0.10339c-2.2175,0.16168-4.44409,0.26721-6.65866,0.4725
		c-2.19339,0.34238-4.41916,0.53726-6.58417,1.02246c-2.16782,0.47086-4.35327,0.87927-6.45981,1.56979
		c-1.05579,0.33032-2.14072,0.58069-3.17358,0.97507l-3.10226,1.17358c-1.05121,0.35309-2.0228,0.88422-3.02808,1.33972
		c-0.98877,0.48901-2.02396,0.89249-2.9599,1.47928l-2.87003,1.64526c-0.92487,0.59818-1.82098,1.24063-2.73361,1.85782
		c-0.93265,0.59174-1.76367,1.31775-2.62265,2.00677c-0.85913,0.68951-1.72421,1.37259-2.49911,2.15823
		c-0.77969,0.77737-1.62329,1.49149-2.35162,2.31857l-2.20462,2.46078l-2.02115,2.61554
		c-0.66888,0.87482-1.23993,1.82233-1.86557,2.72885c-1.185,1.85696-2.30225,3.76532-3.25864,5.7561
		c-0.51413,0.97736-0.97125,1.98282-1.39392,3.00494c-0.45087,1.00894-0.87463,2.02927-1.23996,3.07468
		c-0.39209,1.03418-0.7749,2.07169-1.08984,3.13412c-0.34021,1.05334-0.67532,2.10818-0.94403,3.18384
		c-0.29544,1.06772-0.57538,2.13937-0.80099,3.22543c-0.25632,1.07846-0.47778,2.16449-0.66507,3.25815
		c-0.41733,2.17822-0.69861,4.38168-0.94418,6.58615c-0.20627,2.20862-0.38083,4.42282-0.42047,6.63901
		c-0.04608,2.19986-0.03336,4.46426,0.14005,6.58105c0.0687,0.83847-0.55542,1.57391-1.39374,1.64246
		c-0.37424,0.0307-0.728-0.07663-1.01108-0.27945l-0.03583-0.02576c-2.70074-1.9389-5.35016-3.9523-8.08923-5.83075
		l-4.17392-2.72125l-2.08655-1.36102l-2.15573-1.24509l-4.31696-2.48077c-1.43768-0.82956-2.95395-1.509-4.42679-2.27118
		c-2.93246-1.5589-6.00003-2.82098-9.04514-4.13165c-1.50537-0.69925-3.09415-1.18399-4.6423-1.77341
		c-1.56796-0.53281-3.09067-1.20316-4.68854-1.6441l-4.75214-1.45386c-1.58414-0.48557-3.21091-0.81174-4.81454-1.2261
		l-2.41388-0.59091l-2.44044-0.46509c-1.63109-0.28702-3.25224-0.64078-4.89204-0.87463l-4.9295-0.64032
		c-1.64377-0.2114-3.30241-0.27463-4.95329-0.41998c-1.6512-0.15985-3.30852-0.19702-4.96649-0.22839
		c-1.65732-0.03949-3.31512-0.10852-4.97295-0.03238c-3.31859,0.02377-6.62843,0.26459-9.93646,0.5351l-4.94502,0.58316
		l-4.91927,0.78101c-3.2674,0.59488-6.51695,1.29233-9.73627,2.11926c-3.2187,0.8284-6.40155,1.79208-9.5578,2.8385
		c-3.14105,1.08868-6.27402,2.21304-9.33679,3.51395c-3.07977,1.26096-6.09036,2.68542-9.05536,4.19244
		c-2.95047,1.5199-5.88029,3.14847-8.61359,4.96384c-0.4294,0.28522-1.0089,0.1683-1.29414-0.26111
		c-0.13559-0.20428-0.18036-0.44244-0.14386-0.66687L159.46646,363.18964z"/>
	<path fill="#E6F0FF" d="M143.68074,393.33017c3.02661-1.88425,6.10838-3.61157,9.26859-5.2225
		c3.81062-1.90982,7.67337-3.72272,11.62733-5.31696c3.93674-1.63666,7.94719-3.09232,11.99706-4.42825
		c4.06625-1.28571,8.16785-2.46393,12.31584-3.46179c4.14618-1.0061,8.33232-1.84525,12.54225-2.54483
		c2.11232-0.30258,4.2169-0.66791,6.33629-0.91843l6.36848-0.67944l6.39342-0.40067
		c2.13246-0.11313,4.27022-0.09149,6.40535-0.14334c2.1364-0.08112,4.27087,0.05563,6.40645,0.108l3.20348,0.10339l3.1949,0.25186
		c2.12634,0.20593,4.2674,0.28339,6.38219,0.59604l6.35478,0.85779c2.10934,0.3399,4.20248,0.77988,6.30505,1.16565
		c2.11017,0.3551,4.18567,0.86609,6.25784,1.39276c2.06708,0.54236,4.17029,0.9577,6.20779,1.60577l6.13184,1.88013
		c2.05911,0.5838,4.02478,1.43881,6.03619,2.16037c1.99173,0.77408,4.02759,1.44061,5.96121,2.35474l5.86377,2.58829
		c1.97409,0.82199,3.8248,1.89978,5.74289,2.83752c1.88837,0.9957,3.83487,1.88589,5.67456,2.96896l5.53192,3.22446l2.76056,1.62033
		l2.67206,1.76068l5.3425,3.52206c3.50772,2.4238,6.8793,5.039,10.32425,7.54968l-2.35342,1.33063
		c-0.29877-2.94138-0.36401-5.76962-0.36664-8.65042c-0.00464-2.86838,0.15869-5.7305,0.36499-8.58798
		c0.25928-2.85318,0.56631-5.70441,1.04556-8.53165c0.22049-1.41653,0.46838-2.82843,0.77524-4.23026
		c0.26755-1.40927,0.59109-2.80661,0.95425-4.19574c0.32471-1.39801,0.72025-2.77786,1.14435-4.15045
		c0.38647-1.38318,0.84509-2.74435,1.33908-4.09467l0.7171-2.03223l0.82394-1.99356
		c0.53592-1.33444,1.09616-2.65863,1.74948-3.94272c1.20795-2.61105,2.6279-5.12552,4.14221-7.57278
		c0.80182-1.19702,1.54141-2.43649,2.39572-3.59686l2.61288-3.44611l2.8588-3.24658c0.9437-1.09067,2.04462-2.03287,3.05997-3.05533
		c1.00385-1.03833,2.12207-1.94916,3.23602-2.86493c1.11182-0.91776,2.19455-1.87433,3.40433-2.66229
		c1.18613-0.81799,2.34732-1.67563,3.55524-2.45911l3.73083-2.17987c1.21832-0.77606,2.56665-1.29895,3.8494-1.9498
		c1.30322-0.60843,2.5759-1.29117,3.93677-1.7594l4.0256-1.54434c1.34601-0.50189,2.74304-0.84412,4.11234-1.27316
		c2.73114-0.90536,5.55231-1.42728,8.35065-2.04807c1.39392-0.34634,2.81607-0.51379,4.23175-0.7229l4.24908-0.61469
		c2.84128-0.31,5.69415-0.50339,8.54321-0.75937l-1.17276,1.93494c-1.33377-2.90094-2.51727-5.78519-3.64526-8.72391
		c-1.11874-2.93396-2.18863-5.88626-3.17575-8.86661c-2.02692-5.94354-3.79556-11.98056-5.26559-18.10068
		c-0.38861-1.52518-0.7189-3.06442-1.04526-4.60513c-0.34335-1.53726-0.65945-3.08078-0.9288-4.63455
		c-0.60281-3.09497-1.05832-6.22034-1.48178-9.35132l-0.53854-4.71347l-0.34335-4.73892
		c-0.12997-3.16599-0.26788-6.33992-0.14667-9.51978c0.01474-3.17953,0.29993-6.35991,0.59042-9.53499l0.62332-4.75311
		c0.2558-1.57887,0.61615-3.14287,0.92322-4.71448c0.27148-1.57936,0.77435-3.11215,1.17865-4.66476l0.63849-2.32239
		l0.79572-2.27829c0.57425-1.50339,0.99341-3.06393,1.69894-4.51877l1.96994-4.41852
		c1.56732-2.82544,3.07614-5.68376,4.98978-8.29797l1.36319-2.00266l1.52783-1.88026
		c1.04974-1.22594,1.99374-2.54668,3.13364-3.68938l3.40628-3.43733c1.1391-1.1404,2.44128-2.09959,3.65485-3.15559l1.85236-1.54782
		c0.6344-0.49249,1.31265-0.92519,1.96698-1.39009l3.96088-2.73891l0.39291,3.97772
		c-3.39523-1.40794-6.52341-2.96204-9.6864-4.60944c-3.14603-1.63982-6.2222-3.3987-9.25024-5.23355
		c-3.02167-1.84477-6.02005-3.72784-8.93384-5.7381c-2.92853-1.98746-5.79111-4.07253-8.59131-6.23851
		c-2.79919-2.16632-5.54733-4.40283-8.19916-6.75098c-1.35083-1.14551-2.65158-2.34782-3.93829-3.56601
		c-1.30176-1.20164-2.59128-2.41586-3.82281-3.69135c-2.53214-2.4801-4.91315-5.11018-7.27817-7.75066l-3.42545-4.07054
		c-1.1189-1.37556-2.17209-2.80513-3.26062-4.20546c-1.10916-1.38548-2.08887-2.86774-3.10803-4.32025
		c-1.01733-1.45419-2.04062-2.90407-2.95145-4.42976c-0.92834-1.51297-1.90485-2.99704-2.79242-4.53413l-2.58002-4.66047
		c-0.87924-1.54336-1.5787-3.18135-2.37592-4.76749l-1.16086-2.3977c-0.3678-0.80777-0.69052-1.63634-1.03766-2.45352
		c-0.67267-1.64361-1.3873-3.27103-2.02408-4.92818l-1.75662-5.03058c-0.63351-1.66145-1.04492-3.39341-1.53442-5.09961
		c-0.44345-1.71892-1.02197-3.40349-1.35263-5.14932c-0.73972-3.47219-1.54169-6.931-1.97458-10.45538
		c-0.22955-1.75757-0.59235-3.49928-0.71082-5.2689l-0.45401-5.29614c-0.19702-1.76252-0.19852-3.53495-0.24374-5.30457
		l-0.12338-5.3082l2.27994,1.4413c-3.97144,1.79555-7.93561,3.33379-11.96158,4.82595
		c-4.0152,1.49084-8.07486,2.84774-12.15366,4.13825c-4.08472,1.27069-8.18665,2.48622-12.32474,3.56599
		c-2.05948,0.57539-4.13147,1.10306-6.20944,1.60744c-2.0712,0.53246-4.15561,1.00893-6.24429,1.46706
		c-2.08276,0.48505-4.17575,0.92205-6.27615,1.32436c-2.09564,0.42659-4.19409,0.83684-6.30542,1.1797
		c-4.20975,0.75459-8.43683,1.41718-12.67584,2.00117l-6.3721,0.78431l-6.3923,0.63238
		c-2.12932,0.23963-4.27202,0.3161-6.40875,0.48192c-2.13728,0.17192-4.27899,0.26176-6.42319,0.31676
		c-4.28656,0.21172-8.57936,0.1422-12.87619,0.12997c-4.29036-0.20876-8.58963-0.34699-12.86745-0.81586
		c-4.29465-0.29744-8.54471-1.0147-12.80336-1.63617c-4.21968-0.85814-8.4742-1.55294-12.6364-2.68193
		c-4.20531-0.94765-8.31349-2.25964-12.43655-3.51431c-2.05501-0.64724-4.05452-1.46326-6.08377-2.18713l-3.03255-1.11892
		c-1.00793-0.38001-1.983-0.84393-2.97606-1.26193l-5.93034-2.57392l-5.77542-2.90538l-2.88374-1.45847l-2.79424-1.62412
		l-5.58797-3.24577l2.92438-1.3313c-0.50157,2.76913-1.08754,5.42397-1.73164,8.10458
		c-0.63815,2.67235-1.33609,5.32769-2.08539,7.96833c-1.49976,5.28062-3.20151,10.50376-5.12505,15.64929
		c-0.95425,2.5759-1.9982,5.11827-3.05583,7.6552c-1.10934,2.51661-2.22793,5.02843-3.457,7.49285
		c-0.58068,1.24724-1.24096,2.45732-1.8811,3.67681c-0.63452,1.22231-1.28176,2.438-1.98845,3.62331
		c-1.33722,2.41141-2.83767,4.73132-4.3229,7.05866c-1.58035,2.26921-3.14287,4.55048-4.89746,6.69962
		c-0.82973,1.109-1.73791,2.15773-2.66687,3.19043c-0.92241,1.03717-1.80879,2.10571-2.823,3.06245
		c-0.99835,0.96879-1.94072,1.99374-2.98664,2.91447l-3.1683,2.73114c-2.23023,1.68225-4.46625,3.36435-6.91366,4.74255
		c-0.60513,0.35226-1.18382,0.75012-1.81107,1.06375l-1.89332,0.92007c-1.26161,0.61519-2.51116,1.25632-3.85251,1.69034
		c-1.32886,0.45285-2.61491,1.04097-3.98006,1.37738l-4.08739,1.03354c-2.77425,0.41833-5.55048,0.9209-8.36024,0.90125
		c-2.80711,0.22725-5.59012-0.16252-8.38121-0.31148l1.52635-2.29102c1.51697,2.75972,2.86131,5.51894,4.21307,8.30986
		c1.34055,2.7878,2.62083,5.60301,3.83619,8.44646c1.21635,2.84279,2.38779,5.70605,3.475,8.60252
		c1.11148,2.88721,2.12767,5.81142,3.11251,8.74686c0.99849,2.93164,1.89032,5.9006,2.75093,8.87981l1.20695,4.49548
		l1.06541,4.53644c0.64343,3.04015,1.28506,6.08723,1.71611,9.1756c0.51759,3.07285,0.81454,6.18584,1.09715,9.29749
		l0.27528,4.68773l0.03138,4.70688c0.05037,1.56961-0.15376,3.14055-0.2223,4.711c-0.05549,0.78497-0.08868,1.57144-0.16334,2.35526
		l-0.30718,2.34717c-0.33344,3.13791-1.02742,6.23752-1.75146,9.31879l-1.33989,4.57095
		c-0.53658,1.49596-1.14468,2.96996-1.71693,4.45535l-0.4365,1.11165l-0.54269,1.06639l-1.08853,2.13115
		c-0.37123,0.70569-0.70933,1.42957-1.109,2.11891l-1.29332,2.01587c-1.62428,2.7569-3.71149,5.19095-5.73149,7.65372
		l-3.3539,3.40729c-0.54058,0.58859-1.14174,1.10815-1.7655,1.60214l-1.83885,1.51843l-1.84014,1.51578
		c-0.61635,0.50058-1.30438,0.89941-1.95343,1.35358l-3.9513,2.64081l-0.27118-3.78662
		c3.19044,1.4147,6.21853,2.90604,9.25471,4.48193c3.0228,1.57687,6.02054,3.1972,8.96767,4.90555
		c2.95876,1.68787,5.8722,3.45419,8.74835,5.27896c2.87931,1.81967,5.72571,3.69415,8.51218,5.65634
		c1.40645,0.96185,2.79374,1.95148,4.15857,2.9736c1.37226,1.01123,2.75724,2.00497,4.0854,3.07648
		c2.70571,2.07581,5.31744,4.27402,7.91961,6.48047l3.81356,3.418c1.26441,1.14633,2.46789,2.36221,3.70406,3.53976
		c1.24889,1.16483,2.40843,2.42361,3.59126,3.65714c1.18778,1.22891,2.36434,2.46823,3.46809,3.77789
		c2.29874,2.53445,4.4023,5.2395,6.51263,7.9353c1.98481,2.79507,3.99938,5.56815,5.73644,8.53284l1.34766,2.19125l1.20958,2.27448
		c0.78134,1.52917,1.67601,2.99854,2.32289,4.59607c0.68175,1.57822,1.40268,3.13843,2.04855,4.72934l1.7034,4.86856
		c0.57063,1.62067,0.90504,3.31812,1.36697,4.97177c0.19868,0.83603,0.46953,1.65469,0.60793,2.50391l0.42894,2.5437
		c0.69345,3.37244,0.82227,6.82199,1.05447,10.24167l-0.09628,5.14749l-0.02725,1.2854l-0.14534,1.2778l-0.29179,2.55392
		l-0.29301,2.55194c-0.08653,0.85205-0.32816,1.67896-0.48485,2.51926L143.68074,393.33017z M141.43205,395.0116l0.92334-4.91745
		c0.13409-0.82181,0.35342-1.63107,0.41769-2.46213l0.22707-2.48737l0.22807-2.48508l0.11446-1.24179l-0.00348-1.24741
		l-0.01816-4.98398c-0.30472-3.30505-0.49712-6.62747-1.24426-9.8681l-0.4669-2.44229
		c-0.15045-0.81488-0.4332-1.60098-0.64278-2.40231c-0.48422-1.58615-0.83716-3.2106-1.42511-4.7627l-1.74828-4.65735
		c-0.65897-1.52155-1.39162-3.01321-2.08179-4.52042c-0.64229-1.53049-1.53477-2.94238-2.30984-4.40894l-1.19934-2.18167
		l-1.33807-2.10406c-1.72058-2.84528-3.71992-5.51083-5.68278-8.19592c-2.09315-2.59207-4.17274-5.19208-6.45155-7.63092
		c-1.09134-1.25946-2.25781-2.45218-3.4352-3.63501c-1.17193-1.18698-2.31843-2.39804-3.55757-3.51959
		c-1.22594-1.13361-2.41634-2.30374-3.67004-3.40729l-3.77954-3.29034c-2.58102-2.12405-5.16848-4.23984-7.85239-6.23737
		c-1.31842-1.02759-2.67879-2.00198-4.03487-2.98135c-1.34617-0.99289-2.71529-1.95425-4.10407-2.8887
		c-2.75014-1.90619-5.56138-3.72736-8.4045-5.49466c-2.83998-1.77243-5.71762-3.48788-8.63803-5.12503
		c-2.90934-1.65765-5.86724-3.2276-8.84414-4.75262c-2.96913-1.51514-6.01688-2.983-9.01111-4.28442
		c-1.08423-0.47119-1.58102-1.73196-1.11-2.81619c0.16631-0.38266,0.43105-0.69217,0.75178-0.9118l0.0872-0.05896l3.68507-2.50787
		c0.60446-0.42957,1.2517-0.8056,1.82164-1.27829l1.70124-1.42807l1.70274-1.42511c0.57952-0.46243,1.13593-0.94882,1.6294-1.50027
		l3.08507-3.17804c1.84278-2.29813,3.76335-4.5495,5.23751-7.11086l1.18333-1.86639c0.36449-0.63965,0.66907-1.3143,1.00727-1.96896
		l0.99258-1.97688l0.49777-0.98763l0.40763-1.03056c0.53474-1.37738,1.10897-2.74005,1.61732-4.12817l1.27168-4.26112
		c0.68885-2.88556,1.36252-5.7888,1.69035-8.75925l0.30372-2.21736c0.07465-0.74286,0.10834-1.49167,0.16499-2.23717
		c0.07501-1.49496,0.26887-2.98053,0.24476-4.48409l0.0616-4.50258l-0.1744-4.51151
		c-0.21338-3.00447-0.43667-6.01688-0.8801-9.00961c-0.35722-3.002-0.92287-5.98187-1.48093-8.96008l-0.94154-4.45238
		l-1.0834-4.42529c-0.77837-2.93726-1.58795-5.86955-2.50522-8.77213c-0.89777-2.90785-1.89629-5.78648-2.95212-8.64381
		c-1.04014-2.8631-2.165-5.69664-3.33429-8.51085c-1.16843-2.81488-2.4015-5.6035-3.69299-8.36288
		c-1.27562-2.75806-2.67516-5.49532-4.11315-8.11795c-0.41206-0.75145-0.13688-1.69449,0.61456-2.10637
		c0.25728-0.14122,0.53755-0.20166,0.81091-0.18993l0.10104,0.00478c2.63833,0.12172,5.27732,0.49448,7.91086,0.26309
		c2.64609,0.01537,5.24131-0.47647,7.84-0.8687l3.8205-0.98184c1.2768-0.31544,2.47747-0.87927,3.72058-1.30389
		c1.25434-0.40529,2.42413-1.01636,3.6058-1.59785l1.77474-0.86705c0.58827-0.29547,1.13213-0.67632,1.70061-1.0096
		c2.29841-1.30107,4.40759-2.90538,6.51627-4.50224l3.00319-2.60844c0.99287-0.87862,1.89081-1.86673,2.8416-2.79357
		c0.96582-0.9138,1.81306-1.94666,2.69498-2.94485c0.8877-0.99306,1.75723-2.00249,2.5536-3.07714
		c1.68259-2.07334,3.18614-4.28871,4.70885-6.48839c1.42197-2.27152,2.85848-4.53231,4.14076-6.89252
		c0.67776-1.15723,1.29824-2.34815,1.907-3.54568c0.61371-1.19456,1.24773-2.37788,1.8048-3.60266
		c1.17953-2.41553,2.25269-4.88293,3.3176-7.35379c1.01437-2.49382,2.01619-4.99243,2.93065-7.52704
		c1.84348-5.06213,3.47169-10.20649,4.9006-15.40486c0.71379-2.59919,1.37688-5.21241,1.98019-7.83687
		c0.60597-2.61372,1.1673-5.27963,1.61354-7.86775c0.18233-1.05781,1.18779-1.76748,2.24544-1.58514
		c0.22592,0.03897,0.43584,0.11544,0.6248,0.22197l0.0545,0.03154l5.48108,3.11992l2.7404,1.55872l2.82874,1.39257l5.65948,2.7764
		l5.80898,2.44923c0.97223,0.39753,1.92599,0.84113,2.91295,1.20116l2.96881,1.05946c1.9863,0.68489,3.94072,1.4621,5.95151,2.07201
		c4.02426,1.21239,8.02791,2.49646,12.13495,3.41537c4.0603,1.10108,8.21936,1.77309,12.34027,2.61124
		c4.16881,0.57259,8.31285,1.31859,12.50761,1.72041c4.17786,0.55079,8.39076,0.74732,12.59573,1.06705
		c4.21405,0.15591,8.43192,0.37177,12.65704,0.30834c2.11281,0.02131,4.22548-0.00297,6.3371-0.10388
		c2.11082-0.09595,4.22827-0.10206,6.33661-0.27135l6.33084-0.4502l6.31184-0.68671
		c4.19788-0.5379,8.40201-1.07201,12.56702-1.84674c2.08984-0.34484,4.16721-0.7569,6.24167-1.18514
		c2.07925-0.40397,4.15128-0.84229,6.21323-1.3285c2.06772-0.45929,4.13132-0.93675,6.18152-1.47003
		c2.05716-0.50504,4.10837-1.03304,6.14703-1.60876c4.08789-1.11165,8.13248-2.37656,12.15961-3.68408
		c4.01999-1.32982,8.0192-2.72404,11.96503-4.24841c3.93512-1.51809,7.88989-3.12041,11.65244-4.88409
		c0.80014-0.37506,1.75293-0.03055,2.12799,0.76978c0.09299,0.19818,0.14185,0.40578,0.15027,0.61156l0.00183,0.05995
		l0.19305,5.18516c0.06757,1.72767,0.09052,3.45798,0.30804,5.17426l0.51279,5.15725
		c0.13705,1.72305,0.51724,3.41373,0.76315,5.12157c0.46576,3.42446,1.2955,6.77692,2.05783,10.14027
		c0.34219,1.69167,0.93051,3.31992,1.38266,4.98252c0.49564,1.6507,0.92502,3.3219,1.54138,4.9333l1.72354,4.87385
		c0.6246,1.60513,1.32602,3.18086,1.9845,4.77294c0.34003,0.79141,0.65518,1.59406,1.01535,2.3764l1.13708,2.32172
		c0.78101,1.53577,1.46277,3.12273,2.32388,4.61703l2.52289,4.51365c0.86755,1.48902,1.82379,2.92619,2.73047,4.39209
		c0.88904,1.47813,1.89084,2.88292,2.88556,4.29202c0.99655,1.40761,1.95212,2.84444,3.03818,4.1873
		c1.06525,1.35739,2.09351,2.74353,3.18762,4.07764l3.34949,3.9485c2.31363,2.56235,4.64032,5.11629,7.11862,7.52505
		c1.20395,1.23898,2.46655,2.41833,3.74106,3.58582c1.25879,1.18365,2.53165,2.35211,3.85483,3.46541
		c2.59592,2.28209,5.28793,4.45634,8.02979,6.56255c2.74301,2.10588,5.54767,4.1333,8.41687,6.06509
		c2.86047,1.9442,5.77823,3.80713,8.76437,5.55115c2.98233,1.74947,6.00931,3.42346,9.09238,4.97476
		c3.06342,1.54451,6.23685,3.05351,9.32556,4.28276c1.1539,0.45912,1.7171,1.76682,1.25797,2.92058
		c-0.16614,0.4175-0.44327,0.75755-0.78415,1l-0.08075,0.05746l-3.69104,2.63536c-0.60941,0.44576-1.24426,0.85979-1.83286,1.33064
		l-1.71213,1.4778c-1.11993,1.00677-2.33249,1.91611-3.37808,2.99803l-3.13049,3.2489
		c-1.0517,1.07481-1.90652,2.3214-2.87103,3.47087l-1.40115,1.76268l-1.24063,1.8806l-1.24246,1.87796l-0.62161,0.9384
		l-0.53543,0.99174l-2.14914,3.96039l-1.83963,4.12074c-0.66443,1.35162-1.05157,2.82281-1.59326,4.22745l-0.75079,2.13312
		l-0.60062,2.18581c-0.38055,1.4626-0.86099,2.89778-1.11615,4.39523l-0.90076,4.45535l-0.67334,4.50737
		c-0.32913,3.02264-0.66092,6.05519-0.72815,9.11086c-0.17358,3.04857-0.09348,6.11382-0.02426,9.17412l0.20825,4.5954
		l0.37457,4.59244c0.31329,3.05731,0.65698,6.11777,1.14813,9.16022c0.21338,1.52618,0.47351,3.04562,0.76102,4.56122
		c0.26987,1.51859,0.54636,3.03668,0.88013,4.54422c1.2507,6.0466,2.80167,12.0405,4.61258,17.95847
		c0.90601,2.9592,1.92831,5.88129,2.97952,8.79047c1.05829,2.89859,2.19901,5.80249,3.42496,8.58582
		c0.30753,0.69827-0.00925,1.51364-0.70737,1.82117c-0.14633,0.06439-0.29776,0.10141-0.44839,0.11328l-0.01733,0.00082
		c-2.78845,0.2081-5.58698,0.35114-8.3718,0.60992l-4.15048,0.59488c-1.38281,0.20181-2.77408,0.36185-4.12967,0.69861
		c-2.7247,0.60165-5.47748,1.10306-8.12604,1.98001c-1.32913,0.41504-2.68936,0.74319-3.99359,1.22842l-3.8996,1.48984
		c-1.32104,0.44971-2.54767,1.10983-3.80777,1.69531c-1.23846,0.62741-2.54684,1.12732-3.71927,1.87579l-3.60001,2.09515
		c-1.16434,0.75327-2.28162,1.57855-3.42542,2.36319c-1.16818,0.75491-2.20831,1.67563-3.27933,2.55673
		c-1.07184,0.88043-2.15475,1.74899-3.11447,2.75378c-0.96945,0.99109-2.02478,1.89941-2.92487,2.9559l-2.7305,3.13858
		l-2.49313,3.33215c-0.8157,1.12122-1.51941,2.32239-2.2854,3.47861c-1.44412,2.36783-2.79935,4.79938-3.94998,7.33035
		c-0.62411,1.24246-1.15707,2.52667-1.66739,3.82147l-0.78564,1.93231l-0.68176,1.97357
		c-0.47052,1.31033-0.90717,2.63174-1.27332,3.97708c-0.40332,1.33328-0.77921,2.67432-1.08572,4.03519
		c-0.34549,1.35046-0.65512,2.70935-0.90851,4.08179c-0.29282,1.36365-0.52768,2.73856-0.73608,4.11874
		c-0.45483,2.7533-0.74088,5.53314-0.98199,8.31418c-0.18811,2.78516-0.33594,5.5759-0.3186,8.36652
		c0.01172,2.77457,0.09793,5.61041,0.38333,8.29764c0.08588,0.80908-0.50024,1.53461-1.30933,1.62048
		c-0.37476,0.03979-0.73148-0.06458-1.01505-0.26852l-0.02924-0.02115c-3.41025-2.46014-6.74713-5.02661-10.21509-7.40054
		l-5.27911-3.44626l-2.63901-1.72336l-2.72437-1.58203l-5.45715-3.14914c-1.81424-1.05847-3.73166-1.92273-5.5921-2.89383
		c-1.88916-0.91278-3.71268-1.9668-5.65521-2.76401l-5.76913-2.51593c-1.90222-0.89069-3.90308-1.53345-5.86044-2.28458
		c-1.97922-0.69083-3.90588-1.53625-5.91815-2.12833l-6.00052-1.88638c-1.99438-0.65106-4.05319-1.07004-6.077-1.61703
		c-2.0289-0.53146-4.06143-1.04788-6.12817-1.40958c-2.05948-0.39209-4.10985-0.83966-6.17725-1.18762l-6.22876-0.88522
		c-2.0735-0.32272-4.1736-0.41107-6.25932-0.62891l-3.13495-0.27002l-3.14435-0.12289
		c-2.09663-0.06589-4.19243-0.21667-6.29137-0.1506c-2.09778,0.03683-4.1982-0.00034-6.29466,0.09628l-6.28772,0.34946
		l-6.26808,0.6243c-2.08672,0.23154-4.15988,0.57721-6.24095,0.85995c-4.14819,0.65945-8.27621,1.45648-12.36755,2.41882
		c-4.09317,0.9541-8.14355,2.08704-12.16106,3.32587c-4.00484,1.27795-7.9895,2.63055-11.89752,4.18796
		c-3.9272,1.50952-7.76685,3.23685-11.55594,5.05948c-3.77098,1.84393-7.51204,3.82413-11.02254,6.05554
		c-0.43518,0.27661-1.01221,0.14795-1.28886-0.2872c-0.13179-0.20746-0.1716-0.44708-0.12997-0.67102L141.43205,395.0116z"/>
	<path fill="#E6F0FF" d="M228.79907,245.16727c0.15211-0.07515,0.30455-0.16086,0.45946-0.23286
		c0.79175-0.37523,1.62314-0.6588,2.47186-0.89183c0.85103-0.22923,1.72139-0.38646,2.60397-0.50818
		c0.88687-0.07498,1.78052-0.11446,2.67632-0.05037c0.45004,0.00182,0.89447,0.06226,1.3374,0.13954
		c0.44048,0.08292,0.8958,0.10802,1.32487,0.24295l1.30289,0.34814c0.43121,0.12634,0.83519,0.32353,1.25352,0.48405
		c0.85054,0.29993,1.60628,0.77557,2.38052,1.2124c0.39835,0.20346,0.72964,0.49744,1.09364,0.74632l1.05368,0.79489
		l-2.41798,1.32469c-0.01817-0.39621-0.00317-0.67102,0.01335-0.9939c0.02411-0.30916,0.0497-0.61734,0.09859-0.92172
		c0.0813-0.61073,0.22725-1.21321,0.4043-1.80992c0.18678-0.59505,0.42049-1.18117,0.72519-1.7422
		c0.12997-0.28819,0.32932-0.5488,0.50273-0.8175c0.16681-0.27399,0.37869-0.51941,0.59819-0.75905
		c0.21404-0.2431,0.42543-0.48621,0.67928-0.69099c0.24921-0.20563,0.47679-0.44427,0.7493-0.61504
		c0.53889-0.35855,1.09183-0.68274,1.68094-0.91296c0.5739-0.29514,1.18167-0.39258,1.77953-0.56995
		c0.30107-0.08043,0.59769-0.10025,0.89761-0.16003l0.90222-0.14452l-1.16826,1.97606
		c-0.37296-0.61998-0.64629-1.17572-0.97675-1.76863c-0.30154-0.59091-0.62479-1.18448-0.89316-1.81024
		c-0.27708-0.62196-0.51312-1.27415-0.73691-1.9437l-0.23865-1.04311c-0.09695-0.34418-0.09364-0.72403-0.13791-1.08771
		c-0.04013-0.36301-0.06392-0.74153-0.02972-1.12799c0.02757-0.38515,0.01634-0.76053,0.10619-1.16005
		c0.08522-0.39339,0.15112-0.78348,0.2661-1.17506l0.46587-1.16037c0.18019-0.37654,0.44083-0.73311,0.66689-1.08936
		c0.21703-0.36565,0.53114-0.66473,0.8271-0.97043c0.29909-0.30356,0.5891-0.61256,0.94354-0.82793l1.01418-0.69629l0.48358,3.82216
		c-0.45682-0.17986-0.75394-0.3237-1.10538-0.49811c-0.33394-0.17143-0.67003-0.33246-0.99092-0.51677
		c-0.65038-0.35558-1.27052-0.75903-1.87367-1.19092c-0.59686-0.44162-1.17603-0.91098-1.71594-1.43419
		c-0.53955-0.51892-1.06772-1.06392-1.52238-1.67532c-0.48753-0.5853-0.86293-1.25896-1.24493-1.92123
		c-0.31622-0.69777-0.6801-1.38217-0.85168-2.13263c-0.24608-0.72865-0.34618-1.48407-0.4276-2.23369
		c-0.09297-0.74815-0.01466-1.49481-0.01961-2.22908l2.24474,1.36053c-0.45863,0.18761-0.82858,0.32518-1.23866,0.4644
		c-0.4005,0.13527-0.80182,0.26096-1.20512,0.37128c-0.80132,0.23979-1.60497,0.4507-2.41075,0.66144
		c-0.8132,0.18117-1.61717,0.39983-2.43915,0.60381c-0.81371,0.23947-1.65134,0.4659-2.51083,0.63087
		c-0.43121,0.08076-0.86655,0.15492-1.30586,0.19191c-0.44113,0.02362-0.88358,0.01041-1.32764,0.00876
		c-0.44298-0.00182-0.88608-0.08968-1.32671-0.15492c-0.44278-0.06308-0.87975-0.15392-1.30818-0.29776
		c-0.43123-0.12685-0.85831-0.26607-1.28078-0.41255l-1.22989-0.55196c-0.83321-0.33096-1.56483-0.8692-2.34251-1.2943
		l2.89941-1.33429c-0.12883,0.6375-0.27597,1.12718-0.44179,1.67747c-0.16859,0.53311-0.35739,1.06061-0.57507,1.57985
		c-0.42755,1.04031-0.97688,2.05568-1.67383,3.02414c-0.16846,0.24376-0.34435,0.48439-0.55838,0.71198
		c-0.21321,0.22643-0.38614,0.46887-0.63631,0.67531l-0.72588,0.62097l-0.83453,0.53214
		c-0.27776,0.17621-0.61172,0.28241-0.91924,0.41718c-0.30753,0.14716-0.64377,0.20198-0.97804,0.2654
		c-0.67136,0.17458-1.328,0.09431-1.98845,0.08224l1.51115-2.28275c0.32982,0.60149,0.59175,1.10107,0.85104,1.66838
		c0.27943,0.54402,0.51196,1.1095,0.76762,1.67896c0.49136,1.14302,0.91086,2.36946,1.06941,3.74304
		c0.08403,0.6801,0.10252,1.4005-0.01755,2.13641c-0.06458,0.37094-0.09132,0.73874-0.23618,1.10455l-0.41057,1.09315
		c-0.19438,0.34566-0.41139,0.68109-0.62692,1.01305c-0.19719,0.34732-0.50835,0.59901-0.76614,0.89415
		c-0.26738,0.29231-0.54666,0.56102-0.86256,0.76283l-0.92651,0.64377l-0.19653-3.81174
		c0.38609,0.19868,0.66356,0.36516,0.97966,0.55161c0.30008,0.19092,0.59901,0.38019,0.88721,0.58415
		c0.58002,0.40149,1.14369,0.82346,1.68787,1.27681c1.09613,0.89381,2.09761,1.92998,2.965,3.11627
		c0.23138,0.27763,0.41507,0.60876,0.60777,0.9252c0.19322,0.3161,0.38481,0.63005,0.53212,0.98431
		c0.1498,0.3493,0.33014,0.67267,0.44447,1.03964l0.30632,1.10339c0.07101,0.37637,0.10107,0.76598,0.14619,1.14236
		c0.06537,0.37424,0.01251,0.763-0.00496,1.14088C228.80304,245.11409,228.80089,245.14035,228.79907,245.16727z
		 M226.54242,246.81764c-0.03055-0.58084,0.03831-1.13048-0.09695-1.66409c-0.05168-0.26573-0.05911-0.53014-0.17686-0.78149
		c-0.09744-0.25253-0.16893-0.50389-0.274-0.74666l-0.38564-0.70538c-0.11676-0.23567-0.30453-0.45169-0.44736-0.67647
		c-0.30243-0.44559-0.68939-0.85582-1.07832-1.25583c-0.76665-0.81651-1.71396-1.50554-2.67598-2.16516
		c-0.48354-0.32767-0.98891-0.63237-1.50224-0.91676l-0.77487-0.40974c-0.24792-0.12733-0.53612-0.27251-0.7305-0.35608
		c-1.06656-0.45796-1.55971-1.69365-1.10191-2.76004c0.13362-0.31116,0.33345-0.57341,0.5759-0.77771l0.32932-0.27432
		l0.42792-0.35739c0.16301-0.10156,0.27036-0.23814,0.36845-0.37489c0.09132-0.14154,0.25218-0.23485,0.30322-0.39934
		c0.07399-0.14914,0.14699-0.29431,0.24129-0.43007c0.05252-0.16499,0.11165-0.32552,0.1787-0.48473
		c0.0735-0.15392,0.07651-0.35938,0.14517-0.53212c0.06721-0.17325,0.08823-0.37755,0.11082-0.58282
		c0.03748-0.20232,0.08806-0.40546,0.08769-0.63188c0.09859-0.87383,0.04608-1.86707-0.13593-2.8631
		c-0.07729-0.50256-0.23434-0.99142-0.38596-1.48407c-0.18102-0.4649-0.38184-0.99043-0.59802-1.37062
		c-0.41731-0.73344-0.16119-1.66623,0.57225-2.08357c0.23848-0.13559,0.49777-0.2,0.75377-0.20016l0.18513,0.00082l0.53444,0.00165
		c0.18364,0.02808,0.3445-0.03006,0.50986-0.06143c0.16495-0.03287,0.33704-0.04344,0.48618-0.13377
		c0.15178-0.07977,0.31908-0.10867,0.46606-0.21222l0.43881-0.30685l0.40115-0.40579
		c0.14105-0.12172,0.24675-0.31461,0.37375-0.46457c0.12833-0.1503,0.23814-0.32999,0.34468-0.51445
		c0.23204-0.34517,0.40396-0.7569,0.58612-1.15294c0.16833-0.41156,0.32256-0.83188,0.455-1.26788
		c0.12898-0.43634,0.25053-0.87779,0.35294-1.32471c0.09447-0.43204,0.19389-0.9303,0.23386-1.29579
		c0.11032-1.00595,1.01503-1.73196,2.02098-1.62181c0.17754,0.0195,0.34633,0.06375,0.50322,0.12883l0.3754,0.15854
		c0.63997,0.26936,1.22081,0.65187,1.89134,0.82957l0.97705,0.31412c0.34021,0.06177,0.67548,0.13063,1.00661,0.21205
		c0.32701,0.09662,0.67403,0.11644,1.01123,0.18184c0.34158,0.04211,0.6692,0.15855,1.01884,0.1787
		c0.6869,0.12007,1.38054,0.22527,2.10207,0.36218c0.35889,0.08275,0.7247,0.10521,1.09381,0.15244
		c0.37012,0.05334,0.74203,0.07547,1.11578,0.07201c0.3703-0.02246,0.74979-0.00082,1.11514-0.08092
		c0.36876-0.05765,0.73903-0.11247,1.09891-0.21602c0.7265-0.17722,1.44211-0.40826,2.12932-0.70108
		c0.34435-0.14682,0.68027-0.30586,1.01128-0.47086c0.32002-0.16267,0.67395-0.34386,0.92267-0.50934
		c0.64377-0.42807,1.51282-0.25334,1.94109,0.39043c0.1017,0.15294,0.16925,0.31842,0.20479,0.48787l0.09923,0.48241
		c0.11758,0.57127,0.1422,1.15228,0.31709,1.69118c0.1422,0.54616,0.29959,1.07779,0.52519,1.58069
		c0.17407,0.52138,0.47812,0.98546,0.71759,1.47217l0.45818,0.68225c0.14398,0.23155,0.34695,0.42874,0.50946,0.64972
		c0.33708,0.43436,0.74104,0.82808,1.15756,1.20314c0.418,0.37639,0.87515,0.71643,1.34567,1.03865
		c0.47795,0.31346,0.9711,0.60974,1.48407,0.86375c0.25598,0.12981,0.51068,0.25499,0.77457,0.35574
		c0.24724,0.0948,0.5564,0.20445,0.71924,0.24211c1.06314,0.24608,1.72571,1.30753,1.47946,2.37077
		c-0.08093,0.34964-0.25006,0.65599-0.47864,0.90092l-0.51738,0.55078c-0.14471,0.15408-0.28955,0.29959-0.43703,0.43765
		c-0.16483,0.12569-0.24724,0.31133-0.34964,0.47218c-0.09892,0.1635-0.2251,0.3019-0.27051,0.49893
		c-0.06145,0.1848-0.15756,0.33757-0.20776,0.52815c-0.09943,0.38167-0.21223,0.7607-0.26839,1.19934
		c-0.0639,0.19835-0.06206,0.44295-0.09178,0.66838c-0.02563,0.22577-0.07138,0.45996-0.06973,0.71098
		c-0.05219,0.97012-0.1062,2.06425-0.02692,3.19342c0.04442,0.56136,0.08803,1.14072,0.19753,1.70686
		c0.09016,0.56003,0.25929,1.15161,0.41684,1.6398l0.06474,0.20033c0.23056,0.71461-0.16168,1.48093-0.87614,1.71149
		c-0.11642,0.03766-0.24063,0.05862-0.35722,0.06441l-0.71461,0.03188c-0.23567,0.01801-0.48915-0.00429-0.71165,0.05879
		c-0.44162,0.12321-0.92783,0.16533-1.32716,0.36731c-0.20381,0.09149-0.43254,0.14616-0.6188,0.26573l-0.55742,0.35541
		c-0.18878,0.11446-0.32945,0.28621-0.49976,0.42213c-0.17688,0.13014-0.30864,0.30768-0.43832,0.48439
		c-0.13757,0.16962-0.27267,0.34038-0.37126,0.54237c-0.10454,0.19603-0.2355,0.37158-0.30997,0.58861
		c-0.18732,0.4061-0.32802,0.84145-0.43686,1.28885c-0.10355,0.45021-0.17342,0.9138-0.19835,1.38251
		c-0.01982,0.23386-0.01866,0.46738-0.01932,0.69992c0.00494,0.21883,0.01881,0.48686,0.03946,0.63171
		c0.11412,0.8-0.44177,1.54105-1.24179,1.65517c-0.35754,0.05103-0.70338-0.03188-0.98679-0.21057l-0.18959-0.1199l-0.95822-0.60545
		c-0.32123-0.19406-0.61174-0.44576-0.95425-0.59555c-0.67136-0.32254-1.30307-0.72914-2.00035-0.97325
		c-0.67497-0.30717-1.37787-0.51643-2.08324-0.72849c-0.34732-0.13048-0.71793-0.15392-1.07599-0.23865
		c-0.36049-0.07515-0.72205-0.14764-1.09067-0.17308c-0.73262-0.11082-1.4735-0.10388-2.22015-0.12189
		c-0.74634,0.02527-1.4958,0.07614-2.24428,0.19373c-1.48044,0.24228-3.0058,0.65913-4.36253,1.25087
		c-0.49678,0.21669-1.07498-0.01039-1.29166-0.50719c-0.0479-0.10999-0.07416-0.22377-0.0806-0.3369L226.54242,246.81764z"/>
</g>
</svg>
